<?xml version="1.0" encoding="UTF-8" standalone="no"?>
<svg
   version="1.0"
   width="500.000000pt"
   height="500.000000pt"
   viewBox="0 0 500.000000 500.000000"
   preserveAspectRatio="xMidYMid meet"
   id="svg8"
   sodipodi:docname="crypto_tomb_bond.svg"
   inkscape:version="1.1.1 (3bf5ae0d25, 2021-09-20)"
   xmlns:inkscape="http://www.inkscape.org/namespaces/inkscape"
   xmlns:sodipodi="http://sodipodi.sourceforge.net/DTD/sodipodi-0.dtd"
   xmlns="http://www.w3.org/2000/svg"
   xmlns:svg="http://www.w3.org/2000/svg">
  <defs
     id="defs12" />
  <sodipodi:namedview
     id="namedview10"
     pagecolor="#ffffff"
     bordercolor="#666666"
     borderopacity="1.0"
     inkscape:pageshadow="2"
     inkscape:pageopacity="0.0"
     inkscape:pagecheckerboard="0"
     inkscape:document-units="pt"
     showgrid="false"
     inkscape:zoom="0.92489567"
     inkscape:cx="53.51955"
     inkscape:cy="248.1361"
     inkscape:window-width="1920"
     inkscape:window-height="1057"
     inkscape:window-x="1912"
     inkscape:window-y="-8"
     inkscape:window-maximized="1"
     inkscape:current-layer="svg8"
     inkscape:snap-nodes="false" />
  <g
     id="g948"
     transform="matrix(1.6305234,0,0,1.6296795,-157.75314,-157.08997)">
    <g
       transform="matrix(0.1,0,0,-0.1,0,500)"
       fill="#000000"
       stroke="none"
       id="g6"
       style="fill:#f95b3d;fill-opacity:1">
      <path
         d="m 2355,4030 c -191,-20 -327,-59 -520,-150 -248,-116 -499,-341 -641,-574 -94,-156 -182,-387 -210,-551 -22,-131 -22,-376 0,-508 27,-164 116,-397 210,-553 140,-229 394,-460 629,-569 260,-121 424,-158 687,-157 268,1 427,41 695,172 278,136 518,378 660,665 128,258 169,427 169,695 0,268 -41,437 -169,695 -105,212 -253,389 -453,540 -93,71 -288,172 -434,225 -163,59 -438,90 -623,70 z m 962,-616 c 15,-17 23,-42 28,-91 3,-37 13,-114 21,-171 20,-147 19,-167 -12,-191 -53,-41 -65,-35 -219,104 -44,40 -125,112 -180,162 -124,111 -135,129 -113,177 10,21 26,36 40,39 13,2 111,2 218,0 189,-5 196,-6 217,-29 z m -545,-67 c 52,-24 494,-414 522,-459 11,-18 17,-52 18,-96 2,-115 7,-111 -332,-316 -96,-58 -181,-110 -188,-114 -11,-7 -7,-30 17,-115 36,-122 37,-132 14,-174 -25,-44 -544,-443 -577,-443 -50,0 -42,32 47,187 46,82 94,167 107,189 l 22,42 -22,30 c -20,27 -25,29 -51,20 -58,-20 -89,-4 -203,105 -106,101 -108,103 -105,144 4,48 -13,73 -48,73 -14,0 -87,-43 -180,-106 -86,-59 -164,-109 -175,-112 -21,-5 -48,14 -48,35 0,15 85,151 287,461 54,83 103,147 117,153 19,9 50,6 138,-11 62,-12 120,-24 129,-26 11,-3 27,17 54,68 53,102 225,419 238,439 33,53 137,65 219,26 z M 2077,2238 c 162,-148 213,-201 213,-220 0,-29 -88,-118 -117,-118 -16,0 -60,34 -141,107 -157,144 -172,160 -172,182 0,29 87,121 115,121 16,0 51,-25 102,-72 z m -309,-104 c 15,-10 22,-25 22,-48 0,-41 -15,-56 -60,-56 -45,0 -60,15 -60,56 0,34 28,64 60,64 9,0 26,-7 38,-16 z m 160,-156 c 7,-7 12,-29 12,-50 0,-41 -19,-58 -64,-58 -50,0 -75,63 -39,102 18,20 73,24 91,6 z m -166,-43 c 17,-39 0,-79 -36,-83 -16,-2 -39,-1 -52,2 -21,6 -24,12 -24,50 0,23 3,46 7,49 3,4 26,7 50,7 37,0 45,-4 55,-25 z m 346,-107 c 7,-7 12,-26 12,-43 0,-40 -16,-55 -60,-55 -44,0 -60,15 -60,55 0,40 16,55 60,55 20,0 41,-5 48,-12 z m -180,-40 c 20,-20 15,-86 -7,-98 -50,-26 -101,-1 -101,50 0,16 7,36 16,44 18,19 75,21 92,4 z m -190,-14 c 26,-18 30,-65 6,-88 -18,-19 -75,-21 -92,-4 -19,19 -15,85 6,97 25,15 54,13 80,-5 z"
         id="path2"
         style="fill:#f95b3d;fill-opacity:1" />
      <path
         d="m 2623,3293 c -10,-7 -53,-85 -196,-353 -27,-52 -53,-99 -57,-105 -4,-5 -25,-44 -48,-85 -22,-41 -63,-118 -91,-170 -29,-52 -68,-128 -89,-169 l -37,-73 95,-89 c 52,-49 101,-89 109,-89 7,0 66,32 130,72 64,39 211,129 326,198 346,209 429,261 453,283 18,17 22,31 22,78 0,67 28,35 -260,294 -229,206 -228,205 -292,211 -29,3 -58,1 -65,-3 z m 579,-490 c 23,-21 23,-65 1,-85 -25,-22 -882,-538 -893,-538 -5,0 -45,32 -90,71 -97,86 -98,96 -37,206 24,43 59,105 77,138 48,85 85,131 136,166 54,37 89,39 168,10 147,-55 378,-44 529,24 63,29 85,30 109,8 z"
         id="path4"
         style="fill:#f95b3d;fill-opacity:1" />
      <path
         style="fill:#93aaff;fill-opacity:1;stroke-width:0.764526"
         d="m 296.38125,448.26707 c -1.90477,-1.90475 0.8363,-7.85065 16.06057,-34.83853 l 11.09921,-19.67544 -2.81422,-3.83373 c -3.07163,-4.18441 -3.27216,-4.24594 -9.58711,-2.9416 -3.91686,0.80901 -4.6335,0.73954 -7.69128,-0.7456 -4.41848,-2.14602 -9.07211,-6.03186 -20.00897,-16.70775 -9.59617,-9.3672 -11.45029,-11.97341 -11.24375,-15.80457 0.38744,-7.18668 -1.11205,-9.68315 -5.81613,-9.68315 -3.32354,0 -8.66836,3.02104 -27.11201,15.32444 -15.70036,10.4734 -21.32824,13.70675 -22.9067,13.16042 -1.87491,-0.64894 -3.82263,-2.64326 -3.82263,-3.91411 0,-1.68712 6.36367,-12.16643 24.67046,-40.6258 17.59688,-27.35576 23.02167,-35.19906 27.02936,-39.07979 2.39981,-2.32379 3.07513,-2.57249 6.64027,-2.44538 2.18283,0.0778 10.14557,1.36203 17.69499,2.8538 l 13.72622,2.7123 1.63741,-1.53827 c 0.90058,-0.84604 3.52898,-5.05457 5.84089,-9.35227 2.31191,-4.2977 10.01983,-18.62337 17.12872,-31.83482 7.63433,-14.18794 14.02811,-25.14896 15.61944,-26.77676 6.72847,-6.88267 21.16348,-6.20228 31.38764,1.47945 18.80204,14.12657 62.66893,53.80974 65.50432,59.25697 1.34349,2.58105 2.23158,15.34759 1.38249,19.87365 -1.18483,6.31562 -7.86199,11.32816 -44.77598,33.61325 -12.40443,7.48859 -23.15327,14.29251 -23.88633,15.11981 -1.5341,1.73137 -1.60813,1.24225 2.54007,16.78149 3.20691,12.01309 3.66396,16.9925 1.8769,20.44828 -1.89302,3.6607 -25.44168,22.9836 -52.49391,43.074 -19.82678,14.7244 -25.66154,18.11812 -27.67994,16.09971 z m 17.67042,-72.18826 c 3.13273,-1.71934 11.07492,-6.41868 17.64932,-10.44298 6.57439,-4.02431 23.13464,-14.08796 36.80054,-22.36366 52.3909,-31.72653 59.17381,-36.04712 61.76802,-39.34513 2.14523,-2.72721 3.07021,-13.0582 1.44825,-16.17517 -1.61625,-3.10597 -11.52245,-12.62401 -34.92881,-33.56013 -19.94185,-17.83726 -26.8814,-23.65411 -30.50475,-25.56961 -2.38209,-1.25932 -10.98344,-2.3173 -14.37068,-1.76763 -3.48132,0.56494 -4.03217,1.45261 -23.1403,37.28923 -5.15672,9.67125 -11.71159,21.71254 -14.56636,26.75841 -5.42492,9.58869 -24.19019,44.61741 -30.38495,56.71895 l -3.59596,7.02475 1.89771,2.05871 c 5.65831,6.13837 24.44785,22.50034 25.83863,22.50034 0.21641,0 2.95661,-1.40673 6.08934,-3.12608 z"
         id="path1221"
         transform="matrix(7.5,0,0,-7.5,0,5000)" />
      <path
         style="fill:#93aaff;fill-opacity:1;stroke-width:0.764526"
         d="m 302.60085,371.44941 c -6.88726,-5.62199 -14.30803,-12.92599 -15.57859,-15.33346 -1.62244,-3.07423 -1.35435,-5.07239 1.46967,-10.95403 3.38252,-7.04485 15.19396,-27.83302 19.10086,-33.61758 6.6923,-9.90863 15.73632,-16.43731 22.77021,-16.43731 1.98559,0 7.40037,1.18836 12.03284,2.64079 11.50382,3.60683 19.35175,4.52827 34.13321,4.00766 14.36872,-0.50607 23.98983,-2.46396 36.04785,-7.33569 4.26822,-1.72446 8.6355,-3.13539 9.70508,-3.13539 4.70682,0 8.23958,6.96649 5.58627,11.01595 -1.39156,2.1238 -8.85873,6.84632 -52.40281,33.14156 -39.1534,23.64381 -66.67264,39.94035 -67.44547,39.94035 -0.33063,0 -2.76923,-1.76978 -5.41912,-3.93285 z"
         id="path1260"
         transform="matrix(7.5,0,0,-7.5,0,5000)" />
      <path
         style="fill:#93aaff;fill-opacity:1;stroke-width:0.764526"
         d="m 284.65336,410.05039 c -5.36848,-4.06433 -19.31369,-16.51201 -28.34602,-25.30204 -5.26962,-5.12825 -7.83639,-8.17903 -7.83639,-9.31404 0,-3.87215 11.31279,-16.10709 14.8931,-16.10709 2.45165,0 7.34971,3.85782 21.84019,17.20183 11.28501,10.39216 19.84163,19.41144 19.84163,20.91448 0,0.31633 -0.98738,2.10467 -2.19419,3.97407 -3.28755,5.09259 -10.57174,11.42644 -13.14087,11.42644 -0.75207,0 -3.02792,-1.25714 -5.05745,-2.79365 z"
         id="path1299"
         transform="matrix(7.5,0,0,-7.5,0,5000)" />
      <path
         style="fill:#93aaff;fill-opacity:1;stroke-width:0.764526"
         d="m 224.77064,393.73089 c -1.08361,-1.08362 -1.52905,-2.54842 -1.52905,-5.02823 0,-2.84814 0.41579,-3.91496 2.23477,-5.73395 3.05105,-3.05105 6.76477,-3.05247 10.17672,-0.004 2.11536,1.89008 2.49677,2.75374 2.49677,5.65368 0,5.06812 -1.74864,6.64145 -7.38149,6.64145 -3.4493,0 -4.81747,-0.3488 -5.99772,-1.52905 z"
         id="path1338"
         transform="matrix(7.5,0,0,-7.5,0,5000)" />
      <path
         style="fill:#93aaff;fill-opacity:1;stroke-width:0.764526"
         d="m 245.09854,414.31443 c -2.76926,-3.29108 -2.67366,-7.00983 0.25549,-9.93899 1.87473,-1.87472 2.85132,-2.23477 6.0616,-2.23477 2.37052,0 4.26026,0.43343 4.96576,1.13893 2.7251,2.72509 2.44079,10.18244 -0.46581,12.2183 -0.92118,0.64522 -3.27434,1.16877 -5.2532,1.16877 -3.06415,0 -3.87191,-0.3415 -5.56384,-2.35224 z"
         id="path1377"
         transform="matrix(7.5,0,0,-7.5,0,5000)" />
      <path
         style="fill:#93aaff;fill-opacity:1;stroke-width:0.764526"
         d="m 270.49406,434.9459 c -3.94543,-1.52092 -4.70412,-9.29059 -1.15026,-11.77981 2.4991,-1.75044 9.33754,-1.51839 11.23724,0.38131 1.99673,1.99673 2.08678,7.55163 0.16096,9.92991 -1.58905,1.96239 -6.9675,2.73316 -10.24794,1.46859 z"
         id="path1416"
         transform="matrix(7.5,0,0,-7.5,0,5000)" />
      <path
         style="fill:#93aaff;fill-opacity:1;stroke-width:0.764526"
         d="m 248.68818,442.10488 c -2.39487,-0.43592 -5.56891,-4.48961 -5.56891,-7.11227 0,-3.1297 1.3974,-5.78811 3.56064,-6.77375 2.32716,-1.06032 7.53537,-1.10165 9.45366,-0.075 3.03195,1.62265 2.85709,10.58693 -0.24422,12.52022 -2.05161,1.27892 -4.92837,1.85451 -7.20117,1.44081 z"
         id="path1455"
         transform="matrix(7.5,0,0,-7.5,0,5000)" />
      <path
         style="fill:#93aaff;fill-opacity:1;stroke-width:0.764526"
         d="m 221.11812,442.23494 c -1.421,-0.99531 -1.69916,-1.91007 -1.69916,-5.58783 0,-5.01428 0.94047,-6.71976 4.20489,-7.62534 6.59261,-1.82884 12.30758,4.51442 9.8462,10.92869 -1.20738,3.14638 -9.05042,4.59694 -12.35193,2.28448 z"
         id="path1494"
         transform="matrix(7.5,0,0,-7.5,0,5000)" />
      <path
         style="fill:#93aaff;fill-opacity:1;stroke-width:0.764526"
         d="m 223.62385,419.22816 c -0.84098,-0.2183 -1.95909,-0.94969 -2.48471,-1.62532 -1.13829,-1.46319 -1.25684,-6.9252 -0.21005,-9.67845 0.70049,-1.84243 1.06338,-1.96109 5.99772,-1.96109 6.11526,0 7.66611,1.10434 8.31186,5.91875 0.57218,4.26592 -1.98245,7.13274 -6.67062,7.48582 -1.87833,0.14146 -4.10322,0.0786 -4.9442,-0.13971 z"
         id="path1533"
         transform="matrix(7.5,0,0,-7.5,0,5000)" />
      <path
         style="fill:#93aaff;fill-opacity:1;stroke-width:0.764526"
         d="m 435.41975,272.02709 c -5.82267,-3.85677 -45.10456,-39.10453 -52.58705,-47.18651 -4.81113,-5.1966 -5.52453,-7.89528 -3.24991,-12.29391 2.34204,-4.52901 2.70989,-4.59874 24.06591,-4.56227 22.02547,0.0376 34.11856,0.81691 36.60121,2.35865 3.47448,2.15767 4.47149,6.20086 7.40413,30.0258 1.5477,12.57367 2.61911,24.06222 2.3809,25.53012 -0.47498,2.92694 -2.79561,5.82525 -5.9985,7.49171 -3.036,1.57963 -4.53022,1.34317 -8.61669,-1.36359 z"
         id="path1572"
         transform="matrix(7.5,0,0,-7.5,0,5000)" />
    </g>
  </g>
  <rect
     style="fill:#f95b3d;stroke-width:0.783607"
     id="rect972-7"
     width="165.84474"
     height="2.134356"
     x="-159.70842"
     y="297.72482"
     transform="matrix(0.48321533,-0.87550154,0.88641729,0.46288701,0,0)" />
  <rect
     style="fill:#f95b3d;stroke-width:0.818761"
     id="rect972"
     width="175.0583"
     height="2.2075088"
     x="34.997066"
     y="371.29099"
     transform="matrix(0.85482831,-0.51891093,0.50673744,0.86210044,0,0)" />
  <rect
     style="fill:#f95b3d;stroke-width:0.656179"
     id="rect1098"
     width="42.506115"
     height="3.7744827"
     x="320.05441"
     y="76.748512"
     transform="matrix(0.74236763,0.66999276,-0.63720706,0.77069265,0,0)" />
</svg>
