<?xml version="1.0" encoding="UTF-8" standalone="no"?>
<svg
   version="1.0"
   width="500.000000pt"
   height="500.000000pt"
   viewBox="0 0 500.000000 500.000000"
   preserveAspectRatio="xMidYMid meet"
   id="svg8"
   sodipodi:docname="salt (bad).svg"
   inkscape:version="1.1.1 (3bf5ae0d25, 2021-09-20)"
   xmlns:inkscape="http://www.inkscape.org/namespaces/inkscape"
   xmlns:sodipodi="http://sodipodi.sourceforge.net/DTD/sodipodi-0.dtd"
   xmlns="http://www.w3.org/2000/svg"
   xmlns:svg="http://www.w3.org/2000/svg">
  <defs
     id="defs12" />
  <sodipodi:namedview
     id="namedview10"
     pagecolor="#ffffff"
     bordercolor="#666666"
     borderopacity="1.0"
     inkscape:pageshadow="2"
     inkscape:pageopacity="0.0"
     inkscape:pagecheckerboard="0"
     inkscape:document-units="pt"
     showgrid="false"
     inkscape:zoom="2.616"
     inkscape:cx="331.23089"
     inkscape:cy="356.07798"
     inkscape:window-width="1920"
     inkscape:window-height="1057"
     inkscape:window-x="1912"
     inkscape:window-y="-8"
     inkscape:window-maximized="1"
     inkscape:current-layer="svg8"
     inkscape:snap-nodes="false" />
  <g
     transform="matrix(0.1,0,0,-0.1,-167.54293,459.17726)"
     fill="#000000"
     stroke="none"
     id="g6">
    <g
       id="g3560"
       transform="translate(1949.5414,-837.15604)">
      <path
         d="M 1996.3917,5419.827 C 1673.5481,5388.8588 1443.6443,5322.0324 1107.7565,5159.0415 718.06139,4971.6019 321.84422,4613.0218 103.35406,4252.8118 -61.328778,3978.987 -201.55386,3617.1471 -247.20848,3341.6923 c -35.8715,-215.1481 -35.8715,-630.775 0,-832.8837 65.22095,-365.0998 277.188952,-847.5529 487.52654,-1106.7086 241.31741,-298.2734 560.9,-562.31875 849.50264,-700.86108 438.6108,-210.25834 710.9082,-275.45475 1151.1495,-272.19492 436.9803,1.62992 696.2335,66.82633 1133.2138,280.34442 453.2855,221.66775 844.6111,616.10588 1076.1455,1083.88988 208.7069,420.5166 275.5584,695.9714 275.5584,1132.7871 0,436.8158 -66.8515,712.2705 -275.5584,1132.7871 -171.205,345.5408 -412.5224,634.0348 -738.6272,880.1512 -151.6387,115.7236 -469.5907,280.3445 -707.6471,366.7296 -264.1448,94.5348 -699.4946,145.062 -1007.6635,114.0937 z m 1429.969,-958.3868 c 143.4861,-14.6692 161.4219,-34.2281 176.0966,-182.5499 6.5221,-58.6767 21.1968,-180.92 34.2409,-270.565 32.6105,-229.8172 29.3494,-281.9743 -13.0441,-327.6118 -66.8515,-71.716 -120.6588,-53.787 -300.0163,104.3143 -88.0483,76.6057 -197.2933,176.0302 -242.948,218.4078 -44.0242,42.3777 -132.0724,118.9834 -192.4017,171.1405 -60.3295,52.1572 -114.1367,112.4638 -120.6588,135.2825 -13.0442,55.4169 13.0442,118.9834 60.3293,143.4321 45.6547,22.8187 399.4783,27.7084 598.4021,8.1495 z m -766.346,-141.8021 c 58.6989,-24.4487 179.3576,-125.5031 453.2855,-374.8793 81.5262,-73.3459 202.1849,-182.5498 272.2974,-242.8565 135.3335,-118.9834 176.0966,-189.0695 176.0966,-308.0529 0,-120.6132 -57.0683,-203.7387 -195.6628,-291.7537 -66.8515,-44.0076 -133.7029,-83.1255 -146.7471,-89.6451 -13.0442,-4.8897 -60.3294,-34.2281 -105.9841,-61.9365 -60.3293,-39.1179 -402.7392,-247.7464 -427.1971,-260.7856 -1.6305,0 17.9358,-76.6058 44.0241,-167.8807 27.7189,-91.2749 48.9158,-185.8096 48.9158,-208.6284 0,-60.3067 -40.7631,-128.7628 -101.0925,-171.1405 -29.3494,-21.1888 -57.0683,-42.3777 -61.9599,-47.2674 -13.0442,-14.6692 -704.3861,-544.3897 -751.6713,-575.358 -22.8273,-16.2991 -53.8072,-24.4486 -68.482,-17.929 -53.8072,19.5589 -47.2852,70.0861 24.4579,197.2191 39.1325,70.0861 76.6346,138.5422 83.1567,151.5816 6.5221,13.0392 21.1968,39.1178 32.6105,57.0468 11.4137,17.929 52.1767,89.645 91.3092,159.7311 l 70.1125,127.1329 -35.8715,39.1178 c -30.9799,32.5982 -45.6546,37.4879 -120.6587,29.3384 -78.2651,-8.1495 -88.0483,-4.8897 -164.6828,57.0469 -45.6547,35.858 -130.4419,114.0936 -190.7713,172.7704 -107.6145,102.6842 -110.8756,109.2039 -110.8756,184.1797 0,88.0151 -19.5662,118.9835 -75.0041,118.9835 -30.9799,0 -329.3657,-189.0695 -508.7232,-321.0923 -32.6105,-24.4486 -70.1125,-37.4879 -97.83142,-34.2281 -63.59042,6.5197 -66.85151,71.716 -6.52209,161.3611 26.08834,39.1178 91.30926,141.8021 146.74709,226.5574 55.43775,84.7554 146.74712,228.1874 205.44592,317.8324 58.6988,89.645 127.1808,197.219 151.6387,239.5967 24.4579,42.3777 68.482,89.645 94.5704,104.3142 48.9156,26.0786 61.9598,24.4486 257.6226,-9.7794 127.1809,-22.8188 213.5986,-32.5982 221.7512,-22.8188 8.1527,8.1496 39.1326,61.9366 70.1125,120.6133 337.5183,632.405 381.5425,707.3808 428.8277,736.7191 60.3294,35.858 213.5986,39.1179 296.7552,4.8898 z M 1587.1304,2455.0215 c 288.6026,-264.0453 295.1247,-270.5649 295.1247,-312.9426 0,-55.4169 -136.964,-193.9592 -190.7713,-193.9592 -39.1325,0 -143.486,84.7553 -432.0887,356.9501 -104.3535,97.7946 -102.723,132.0227 9.7832,242.8566 65.2209,63.5664 96.2008,81.4954 117.3977,73.3459 17.9357,-4.8897 107.6146,-79.8656 200.5544,-166.2508 z M 1037.644,2327.8886 c 32.6104,-29.3384 39.1326,-118.9834 9.7831,-148.3218 -11.4136,-11.4093 -45.6546,-19.5589 -78.26512,-19.5589 -32.6105,0 -66.85142,8.1496 -78.26508,19.5589 -27.71892,27.7085 -24.45792,120.6134 6.52208,149.9517 32.61042,34.2281 102.72292,32.5982 140.22502,-1.6299 z m 254.3616,-252.636 c 26.0884,-26.0785 26.0884,-130.3927 0,-156.4713 -24.4579,-24.4486 -102.723,-26.0786 -145.1165,-3.2598 -42.3937,22.8187 -44.0242,136.9124 -1.6306,161.361 39.1326,22.8187 122.2892,22.8187 146.7471,-1.6299 z m -286.9721,-40.7477 c 32.6105,-29.3384 37.5021,-88.0151 13.0442,-136.9124 -13.0442,-22.8188 -34.24097,-30.9683 -89.6788,-30.9683 -55.43775,0 -76.63459,8.1495 -89.67875,30.9683 -22.82734,45.6375 -21.19684,86.3852 9.78308,128.7628 29.34942,44.0076 112.50617,48.8973 156.53027,8.1496 z m 596.7716,-260.7855 c 3.261,-53.7871 -1.6305,-71.7161 -32.6105,-92.9048 -47.2852,-32.5983 -101.0925,-32.5983 -133.703,0 -26.0883,26.0785 -35.8715,138.5422 -14.6746,159.7311 6.5221,6.5196 48.9156,9.7795 94.5703,6.5196 l 81.5262,-4.8897 z m -300.0164,-14.6692 c 16.3053,-42.3776 11.4137,-128.7628 -9.7831,-149.9517 -11.4136,-11.4093 -45.6546,-19.5589 -78.2651,-19.5589 -73.3735,0 -97.8314,24.4487 -97.8314,97.7946 0,32.5981 8.1526,66.8263 19.5663,78.2356 29.3494,29.3384 154.8997,24.4487 166.3133,-6.5196 z m -313.06047,-17.929 c 32.61047,-29.3384 39.13257,-118.9834 9.78317,-148.3218 -11.41367,-11.4093 -47.28517,-19.5589 -79.89567,-19.5589 -99.46192,0 -146.74709,96.1647 -79.89558,162.991 39.1325,39.1178 109.245,42.3776 150.00808,4.8897 z"
         id="path2"
         style="fill:#f95b3d;fill-opacity:1;stroke-width:1.63022" />
      <path
         d="m 2443.1551,4218.5837 c -19.5662,-3.2599 -39.1325,-19.5589 -44.0241,-34.2281 -4.8916,-14.6692 -35.8715,-74.9758 -68.4819,-133.6526 -78.2652,-138.5423 -154.8998,-278.7145 -265.7754,-488.9728 -48.9157,-94.5348 -94.5704,-177.6602 -101.0925,-187.4397 -6.5221,-8.1495 -55.4377,-96.1646 -105.984,-195.5891 -52.1767,-97.7946 -99.4619,-185.8097 -105.984,-195.5892 -53.8072,-74.9758 -161.4218,-303.1631 -153.2692,-324.352 11.4136,-30.9683 296.7553,-286.864 319.5826,-286.864 8.1526,0 53.8073,24.4486 99.462,55.4169 47.2851,29.3383 143.486,89.645 215.229,132.0226 133.703,79.8656 616.3379,371.6195 660.362,399.3279 102.723,63.5665 371.7593,226.5574 420.675,255.8958 92.9399,55.4169 117.3977,94.5348 117.3977,189.0695 0,76.6058 -4.8916,86.3852 -84.7872,164.6208 -92.9399,89.6451 -617.9684,559.0591 -683.1893,609.5862 -40.7631,32.5983 -158.1607,53.787 -220.1207,40.7478 z m 926.1373,-798.6557 c 16.3052,-14.6692 29.3494,-48.8973 29.3494,-79.8656 0,-53.787 -26.0883,-73.3459 -570.6832,-397.6979 -13.0441,-6.5197 -221.7511,-132.0227 -461.438,-278.7145 -379.912,-229.8173 -440.2414,-262.4155 -472.8519,-247.7463 -57.0683,26.0785 -251.1006,211.8882 -260.8837,249.3761 -8.1526,32.5983 19.5663,94.5348 159.7913,350.4306 101.0924,184.1798 132.0724,226.5574 211.968,298.2735 119.0283,104.3142 161.4218,112.4638 313.0605,58.6768 105.9841,-37.488 161.4218,-47.2675 330.9963,-52.1572 125.5503,-4.8897 238.0564,0 293.4942,13.0393 110.8756,24.4486 280.45,79.8655 301.6468,99.4244 24.4579,22.8188 92.9399,16.2992 125.5503,-13.0392 z"
         id="path4"
         style="fill:#f95b3d;fill-opacity:1;stroke-width:1.63022" />
      <path
         style="fill:#ffffff;stroke-width:9.34762"
         d="m 1839.8446,2460.6434 c -76.3048,59.9939 -193.7643,182.1898 -200.3533,208.4322 -6.827,27.1906 25.0913,98.6651 133.5443,299.0459 135.3214,250.0238 221.484,355.4391 337.2508,412.6077 57.9342,28.6096 81.2069,26.8902 215.2971,-15.9071 119.6892,-38.201 184.3506,-45.8352 389.9214,-46.0354 157.1239,-0.1532 188.4337,2.4682 271.1306,22.6993 111.7852,27.3472 223.6378,64.8614 255.3796,85.6514 32.3519,21.19 102.7395,12.5734 125.3553,-15.3454 46.6351,-57.5701 31.9439,-101.8668 -54.2466,-163.5628 -68.1442,-48.7781 -1179.7106,-721.1311 -1303.4934,-788.4438 -38.5659,-20.972 -81.3121,-38.1901 -94.9912,-38.2624 -15.1979,-0.085 -44.2879,15.135 -74.7946,39.1204 z"
         id="path897" />
      <path
         style="fill:#ffffff;stroke-width:9.34762"
         d="m 1839.8446,2460.6434 c -78.1936,61.4791 -193.831,182.455 -200.7519,210.0201 -5.0015,19.9197 9.203,55.5317 69.9005,175.2477 124.9374,246.4187 193.7186,356.388 272.5891,435.8241 44.1075,44.4239 90.0423,80.3574 123.8229,96.864 62.1814,30.3844 93.0278,28.9614 205.8246,-9.4943 113.1737,-38.5841 208.4298,-50.5166 403.1624,-50.5034 157.9143,0.017 189.6479,2.6781 272.2433,22.8844 111.7852,27.3472 223.6378,64.8614 255.3796,85.6514 32.3519,21.19 102.7395,12.5734 125.3553,-15.3454 46.681,-57.6269 31.9576,-101.8568 -54.5106,-163.7517 -68.6629,-49.1496 -1180.2302,-721.5273 -1303.2294,-788.3126 -38.5659,-20.9404 -81.3121,-38.1324 -94.9912,-38.2045 -15.1979,-0.086 -44.2879,15.1348 -74.7946,39.1202 z"
         id="path936" />
      <path
         style="fill:#ffffff;stroke-width:9.34762"
         d="m 1782.9091,1515.5965 c -40.1303,23.3649 -16.4037,80.7095 168.1678,406.4417 172.7743,304.9124 158.5504,268.2361 120.2325,310.021 l -32.212,35.1264 h -92.6346 -92.6346 l -52.7765,40.6918 c -71.8752,55.4177 -267.636,240.0959 -295.7167,278.9756 -16.8109,23.2761 -23.7313,46.8255 -26.3297,89.5991 -4.8863,80.4339 -17.0835,107.7567 -52.5174,117.6449 -40.1028,11.1909 -114.6418,-29.0285 -372.6028,-201.0473 -111.7182,-74.4982 -215.37512,-138.9635 -230.34862,-143.2563 -34.44708,-9.8756 -70.33834,6.8051 -74.33017,34.5455 -5.12617,35.6217 27.58083,92.6634 250.60025,437.0536 119.83214,185.047 240.22024,372.5486 267.52874,416.6696 55.8771,90.2781 117.901,152.9489 160.662,162.3371 17.0602,3.7457 85.0357,-3.328 167.2828,-17.4082 76.1997,-13.0448 168.4997,-26.4854 205.1111,-29.8681 l 66.5664,-6.1502 51.4355,92.3507 c 28.2897,50.7929 100.946,184.8744 161.4586,297.9586 197.7319,369.5163 249.9459,453.6557 296.4354,477.6872 38.4097,19.8549 167.0422,27.7024 230.6313,14.0702 82.7208,-17.7337 132.6617,-56.4382 524.6317,-406.5956 311.1131,-277.9254 361.0008,-327.848 393.4392,-393.7151 23.4437,-47.603 27.9876,-68.1806 28.3008,-128.1649 0.455,-86.9328 -21.2415,-142.7109 -78.5994,-202.0756 -39.0847,-40.4523 -155.789,-123.2502 -244.9726,-173.8004 -89.0751,-50.4886 -523.6209,-316.1576 -536.2289,-327.8353 -10.5868,-9.8053 -5.7187,-37.6027 29.6488,-169.2973 55.039,-204.9441 55.995,-210.3815 44.4971,-253.0649 -20.1715,-74.8831 -18.5628,-73.4862 -582.8041,-506.0101 -357.3962,-273.9651 -361.3938,-276.4804 -401.9219,-252.8837 z m 184.6493,876.3832 c 25.7106,14.4785 143.5121,85.364 261.7813,157.5231 118.269,72.1594 414.8766,252.1948 659.1279,400.0786 244.2512,147.884 461.654,283.0172 483.1172,300.296 45.7781,36.8533 61.3443,76.2033 61.9308,156.5549 0.6825,93.512 0.752,93.4297 -339.3627,399.182 -393.6364,353.866 -435.1184,387.8122 -494.124,404.3621 -97.4828,27.3419 -207.0759,14.6461 -207.0759,-23.9888 0,-5.5265 -49.9184,-100.9658 -110.9296,-212.0873 -61.0114,-111.1215 -159.5057,-292.4596 -218.8761,-402.9739 -59.3702,-110.5142 -157.4932,-291.3557 -218.0507,-401.87 -159.761,-291.5545 -246.8368,-466.7442 -246.8368,-496.6155 0,-20.6551 17.2593,-42.858 81.8067,-105.2398 81.7968,-79.0529 225.315,-202.0344 235.3987,-201.715 2.9405,0.098 26.3824,12.0151 52.0932,26.4936 z"
         id="path1014" />
      <path
         style="fill:#ffffff;stroke-width:9.34762"
         d="m 1782.9091,1515.5965 c -39.011,22.7133 -6.0879,102.1275 172.1056,415.1401 43.8936,77.1028 95.4209,168.368 114.5052,202.8114 l 34.6985,62.6243 -32.5604,35.5068 -32.5606,35.5065 h -92.5823 -92.582 l -50.7048,38.3942 c -70.6202,53.4744 -269.0302,240.2582 -297.0924,279.6837 -16.4633,23.1299 -24.2673,48.2377 -26.8073,86.2477 -4.875,72.952 -9.5053,91.8871 -26.6654,109.0406 -39.6647,39.6499 -94.8334,13.6322 -399.0018,-188.1696 -111.84117,-74.2017 -214.95642,-138.2402 -229.14475,-142.3078 -30.59534,-8.7713 -65.82443,2.2944 -73.84826,23.1963 -12.28625,32.0055 21.97917,96.3128 189.79392,356.1929 95.71449,148.2246 220.11929,341.8352 276.45509,430.2459 101.8592,159.8526 162.4382,230.4321 207.4815,241.7331 12.9693,3.2537 107.4387,-7.4396 209.9325,-23.7632 102.4936,-16.3235 197.9417,-28.3059 212.1068,-26.6275 23.2343,2.7531 37.5999,25.0022 146.7921,227.3514 290.6612,538.6365 334.4803,611.4555 383.0568,636.5659 39.1229,20.2236 166.1917,27.56 233.8594,13.5021 82.1041,-17.057 108.2236,-37.6548 558.8009,-440.6737 293.7765,-262.7681 329.5255,-299.2181 361.1166,-368.1959 31.1839,-68.089 32.4228,-169.134 2.9144,-237.7021 -27.9576,-64.9649 -119.8513,-148.0017 -248.5748,-224.6167 -166.5294,-99.1171 -567.5728,-343.4853 -586.3085,-357.2563 -16.7632,-12.3211 -15.8341,-18.69 25.0021,-171.4168 55.1164,-206.1331 56.0419,-211.4132 44.5379,-254.1195 -20.3616,-75.5884 -22.7774,-77.6912 -575.6927,-501.1257 -363.1106,-278.0781 -368.4121,-281.4189 -409.0333,-257.7681 z m 288.6243,939.8108 c 81.6512,49.5501 247.3262,149.7338 368.1662,222.6307 459.0055,276.8951 886.3553,538.453 922.3809,564.5402 51.6556,37.4048 68.6482,77.6216 68.6482,162.4702 0,61.8691 -2.9952,73.7485 -26.9175,106.7597 -25.3271,34.95 -327.0927,311.9707 -608.8371,558.9123 -69.4187,60.8435 -143.7046,118.3979 -165.0799,127.8982 -45.4561,20.2034 -136.8517,31.5852 -183.4532,22.8458 -35.3138,-6.6223 -42.0074,-18.0263 -392.8069,-669.2297 -53.9954,-100.2337 -149.9812,-276.8695 -213.3019,-392.524 -151.6925,-277.0643 -231.0685,-434.9517 -238.4559,-474.3146 -5.5722,-29.6909 -1.9489,-36.2362 48.9415,-88.4144 61.3217,-62.8729 254.6781,-231.665 265.3794,-231.665 3.7834,0 73.6847,40.5407 155.3362,90.0906 z"
         id="path1053" />
      <path
         style="fill:#ffffff;stroke-width:9.34762"
         d="m 1777.7669,1516.717 c -31.0398,31.0281 -2.6939,96.839 182.7394,424.2689 66.6728,117.7275 125.8965,222.974 131.6086,233.8816 8.8514,16.9023 5.7549,25.1845 -20.965,56.0747 l -31.3503,36.2434 h -92.9332 -92.9333 l -50.7048,38.3942 c -70.1734,53.1363 -268.9556,240.1535 -296.7162,279.1551 -16.9172,23.7677 -24.6469,50.4671 -29.7786,102.8594 -8.6934,88.7529 -25.6474,111.6682 -77.4776,104.7189 -44.0203,-5.902 -118.1304,-49.0837 -358.8146,-209.0701 -195.2994,-129.8185 -227.20874,-145.9312 -262.87883,-132.7409 -54.45558,20.1368 -38,66.7861 98.80726,280.1046 60.70292,94.6518 183.25177,285.6456 272.33087,424.4309 89.0789,138.7854 178.9202,269.9622 199.6475,291.5043 61.8597,64.2917 69.8423,65.4867 248.3639,37.1752 241.3944,-38.2825 255.9522,-39.2873 274.3104,-18.9336 8.6108,9.5467 96.3767,166.657 195.0354,349.134 207.3053,383.4272 265.81,478.0068 309.9813,501.1187 39.8445,20.8482 164.219,27.9261 234.4855,13.3445 81.66,-16.9462 108.2397,-37.917 558.4228,-440.5832 294.2839,-263.2219 329.5012,-299.165 361.4272,-368.8741 31.4259,-68.6176 32.6576,-167.1882 2.9515,-236.2158 -27.3443,-63.5397 -110.1379,-140.4656 -229.503,-213.2375 -51.042,-31.1182 -204.3179,-124.3153 -340.6132,-207.1045 -136.2951,-82.7891 -255.2949,-155.9971 -264.4438,-162.6843 -15.791,-11.5426 -15.189,-17.6016 11.8784,-119.5234 76.5581,-288.2813 77.0776,-295.7582 25.5775,-368.1224 -30.7759,-43.2439 -133.2198,-125.6463 -581.677,-467.8807 -323.1524,-246.6095 -344.6297,-259.5741 -376.7781,-227.4379 z m 270.4327,924.5582 c 68.7742,41.7772 236.5349,143.364 372.8013,225.7485 482.2276,291.547 893.3698,542.5211 932.6561,569.323 55.8586,38.1076 77.0717,84.132 77.0717,167.2162 0,50.0993 -4.5957,74.4593 -18.1976,96.4595 -20.4678,33.1051 -123.8143,130.2409 -430.8571,404.9641 -338.1724,302.5759 -347.3124,308.8348 -463.8703,317.6467 -106.8553,8.0783 -65.9726,64.8616 -405.2923,-562.9215 -303.6959,-561.8747 -339.0962,-627.0471 -390.8862,-719.6276 -63.1094,-112.816 -123.0225,-245.0651 -123.2206,-271.9915 -0.098,-12.6496 30.6775,-49.405 86.3365,-103.1286 86.202,-83.2046 221.4638,-199.2376 232.568,-199.506 3.2155,-0.073 62.1162,34.04 130.8905,75.8172 z"
         id="path1092" />
      <path
         style="fill:#ffffff;stroke-width:9.34762"
         d="m 1630.8577,1985.5029 c -55.3509,37.2811 -194.82,160.2485 -333.4596,294.0051 -107.5719,103.783 -122.0261,129.8942 -97.814,176.6975 19.4705,37.6377 152.047,161.4481 172.8789,161.4481 21.8195,0 112.0174,-75.3539 320.2667,-267.5593 90.5247,-83.5505 169.5996,-163.9992 175.7224,-178.775 15.7053,-37.9019 2.0808,-67.422 -62.2238,-134.8209 -52.1803,-54.6911 -91.3445,-82.3974 -116.4732,-82.3974 -6.7515,0 -33.2555,14.1308 -58.8974,31.4019 z"
         id="path1131" />
      <path
         style="fill:#ffffff;stroke-width:9.34762"
         d="m 1634.9226,1981.5107 c -52.2096,34.6185 -207.8022,171.9466 -337.6473,298.012 -107.3692,104.2438 -121.7295,130.2155 -97.6912,176.6828 19.4705,37.6377 152.047,161.4481 172.8789,161.4481 21.7866,0 112.3584,-75.5194 317.3778,-264.6318 165.8345,-152.9678 194.5543,-188.2075 184.8589,-226.8228 -6.8744,-27.3795 -111.4006,-140.4269 -146.7264,-158.6878 -36.1306,-18.6768 -46.0125,-17.19 -93.0507,13.9995 z"
         id="path1170" />
      <path
         style="fill:#ffffff;stroke-width:9.34762"
         d="m 1649.3503,1971.4704 c -48.8358,29.77 -162.5606,128.2573 -309.7897,268.2823 -151.7689,144.3424 -165.9422,166.2595 -139.9765,216.4528 19.284,37.2775 151.9555,161.4481 172.5008,161.4481 22.4062,0 111.7518,-74.1709 312.9022,-259.7574 170.067,-156.9083 199.4733,-192.8224 189.7126,-231.6972 -6.8744,-27.3795 -111.4006,-140.4269 -146.7264,-158.6878 -33.7147,-17.428 -44.4234,-16.8886 -78.623,3.9592 z"
         id="path1209" />
      <path
         style="fill:#ffffff;stroke-width:9.34762"
         d="m 3505.7261,3656.1193 c -47.5299,18.9574 -140.7192,97.2132 -476.7467,400.3492 -160.9819,145.2243 -241.7053,226.234 -253.2878,254.186 -14.5167,35.0334 -0.049,88.7578 31.9972,118.8568 30.9578,29.0725 105.6814,38.1998 314.512,38.4172 201.8035,0.2103 364.6747,-13.2079 407.6269,-33.5824 16.6907,-7.9175 36.5766,-27.7385 44.1908,-44.0468 7.6144,-16.3086 22.6352,-101.1474 33.3799,-188.5307 10.7447,-87.3833 25.7937,-205.1404 33.4425,-261.6827 18.5518,-137.1414 17.7712,-178.4612 -4.2283,-223.8894 -28.7184,-59.3018 -77.1244,-81.5202 -130.8865,-60.0772 z"
         id="path1248" />
      <path
         style="fill:#ffffff;stroke-width:9.34762"
         d="m 3505.7261,3656.1193 c -48.8385,19.4793 -145.53,100.7641 -477.7797,401.651 -260.5708,235.974 -274.2199,253.2701 -252.2886,319.6981 16.6499,50.4307 46.6734,71.9404 113.9948,81.6692 80.3882,11.6171 381.6619,11.2317 506.9905,-0.6478 123.9687,-11.7512 161.2521,-25.7852 178.3457,-67.1315 12.0248,-29.0859 50.9134,-306.3072 73.2978,-522.5085 9.1821,-88.688 8.4839,-103.9707 -6.5474,-143.3149 -25.2747,-66.1562 -77.4376,-92.7779 -136.0131,-69.4151 z"
         id="path1287" />
      <path
         style="fill:#ffffff;stroke-width:9.34762"
         d="m 1777.7669,1516.717 c -31.164,31.1523 -4.5129,92.6462 188.392,434.6875 70.1885,124.4515 127.6155,231.8536 127.6155,238.671 0,6.8176 -12.1565,26.9515 -27.0145,44.7423 l -27.0145,32.3467 -92.4313,0.017 c -89.6832,0.017 -93.675,0.9205 -134.2615,30.6319 -68.7574,50.3331 -289.1785,256.7084 -310.1584,290.3939 -12.4581,20.0036 -21.9443,56.3462 -26.2911,100.7242 -11.0061,112.3671 -45.1321,130.4263 -145.8205,77.167 -30.2911,-16.0225 -150.2156,-91.853 -266.4988,-168.5119 -116.2834,-76.6591 -224.1474,-143.0278 -239.6979,-147.4859 -35.53317,-10.1869 -71.32576,6.0733 -75.37959,34.2444 -1.6165,11.233 5.05675,38.464 14.82933,60.5139 16.79683,37.8987 522.29886,829.4897 569.43246,891.7029 12.1592,16.0495 40.4726,38.9197 62.9184,50.8228 l 40.8106,21.6418 157.6634,-25.0064 c 243.4213,-38.6083 257.8329,-39.613 275.843,-19.2301 8.4351,9.5478 96.2051,166.6581 195.0441,349.1351 206.8338,381.8566 266.0958,477.697 310.2915,501.8118 24.7523,13.5056 52.4343,16.8806 138.4552,16.8806 132.7623,0 153.5731,-8.8491 291.9518,-124.143 120.7715,-100.6239 607.3045,-538.1894 653.2015,-587.4595 73.313,-78.7012 94.2722,-129.0895 94.2722,-226.641 0,-92.112 -25.8499,-146.0246 -104.8231,-218.6172 -45.222,-41.5686 -158.6037,-115.8414 -398.5729,-261.0929 -184.4546,-111.649 -342.7184,-208.3783 -351.6972,-214.9538 -15.4178,-11.2911 -15.0075,-16.8888 7.3819,-100.7406 55.9124,-209.4005 71.5141,-283.7521 65.8617,-313.8709 -14.3897,-76.6752 -81.5413,-134.9197 -668.9466,-580.2186 -274.4462,-208.0521 -294.089,-219.4116 -325.3567,-188.1558 z m 223.3078,896.5101 c 43.2717,26.3507 190.1664,115.3326 326.4329,197.7373 578.2695,349.6989 943.6445,572.4688 1001.9986,610.9206 76.9525,50.7072 101.2225,93.5024 101.2225,178.4861 0,31.4539 -4.4222,68.8161 -9.8275,83.0272 -12.0607,31.7105 -88.653,105.7973 -378.1696,365.7998 -280.595,251.9901 -382.7007,337.2933 -424.7555,354.8583 -18.1671,7.5879 -65.3763,16.0123 -104.9094,18.7209 -67.8954,4.6519 -73.0851,3.6202 -93.6586,-18.6203 -24.6015,-26.5949 -87.9125,-138.9913 -309.3085,-549.1183 -84.6312,-156.776 -210.0353,-388.0849 -278.6753,-514.0197 -149.6523,-274.5688 -221.9763,-418.3797 -229.6196,-456.5817 -4.9613,-24.7971 0.5234,-34.847 44.482,-81.5033 50.6782,-53.7886 259.8761,-237.6173 270.4094,-237.6173 3.1369,0 41.1072,21.5598 84.3786,47.9104 z"
         id="path1326" />
      <path
         style="fill:#ffffff;stroke-width:9.34762"
         d="m 1777.7669,1516.717 c -6.1705,6.1683 -11.2192,23.1366 -11.2192,37.7072 0,29.2389 84.7082,197.861 207.9555,413.961 44.0569,77.2487 89.5117,159.81 101.0105,183.4691 l 20.907,43.0165 -25.0223,32.7937 c -28.5204,37.3783 -51.8136,44.1713 -127.8337,37.2806 -73.8614,-6.695 -91.6434,-0.4939 -160.4666,55.9557 -100.8785,82.7424 -259.8552,234.2719 -280.1313,267.0084 -11.3247,18.2843 -22.1208,57.579 -26.316,95.7811 -8.5757,78.0945 -27.5928,111.5861 -63.2558,111.4023 -36.2399,-0.187 -137.1599,-57.5254 -357.3965,-203.0573 -224.20535,-148.1546 -242.83052,-157.5486 -278.57136,-140.5054 -33.2645,15.8625 -36.82033,50.6153 -10.46308,102.2604 23.0825,45.2284 507.58974,801.5144 556.39884,868.5042 17.2142,23.6263 49.7096,52.7205 72.2121,64.6534 l 40.9134,21.6964 162.6925,-24.6527 c 273.2216,-41.4015 255.2023,-40.7585 276.9708,-9.8826 10.3624,14.698 97.7205,171.8175 194.1285,349.1543 203.4394,374.2144 262.0522,468.6179 305.7589,492.4661 24.7523,13.5056 52.4343,16.8806 138.4552,16.8806 93.3132,0 113.2855,-2.8404 151.1793,-21.5001 53.5702,-26.3793 170.3012,-123.2231 456.5272,-378.7499 414.0597,-369.6498 431.719,-391.6563 431.719,-537.9935 0,-87.0051 -25.8809,-144.4903 -94.5149,-209.9314 -62.0781,-59.1904 -84.3248,-73.7272 -475.0287,-310.4038 -244.8246,-148.3074 -292.1011,-180.3641 -292.1666,-198.1099 -0.049,-11.6446 19.326,-96.7902 43.0419,-189.2125 30.5708,-119.1354 41.3901,-177.259 37.1759,-199.7147 -10.0081,-53.3277 -53.0774,-104.8722 -155.3558,-185.926 -246.5604,-195.395 -705.3365,-544.0492 -758.6025,-576.5116 -35.2758,-21.4987 -64.2246,-24.3109 -80.7022,-7.8396 z m 779.6473,1234.4101 c 811.7509,492.3201 780.239,472.7899 815.9959,505.7317 17.3252,15.9612 37.3094,42.5535 44.4095,59.094 14.6274,34.0769 17.2048,130.3131 4.392,164.0004 -11.3029,29.7175 -90.1359,107.659 -304.6854,301.2399 -458.8773,414.0294 -483.4871,431.9457 -606.0456,441.2112 -66.4497,5.0238 -71.4647,4.029 -92.0654,-18.2632 -23.315,-25.2294 -84.6491,-134.4161 -316.3256,-563.1211 -80.5565,-149.0657 -202.4916,-374.0662 -270.9666,-500.001 -139.8301,-257.1663 -233.7539,-445.5245 -233.8195,-468.9098 -0.062,-22.4991 37.0804,-63.5422 149.0768,-164.7285 132.2066,-119.4453 166.5865,-143.8826 187.0339,-132.9437 8.8779,4.7496 289.2279,174.26 623,376.6901 z"
         id="path1365" />
      <path
         style="fill:#ffffff;stroke-width:9.34762"
         d="m 1777.7669,1516.717 c -30.339,30.3274 2.187,107.2566 173.2657,409.8002 110.1578,194.8087 142.7418,256.0128 142.7418,268.1198 0,4.1994 -12.3845,21.1894 -27.5209,37.7555 -27.1536,29.718 -28.6603,30.1202 -112.8067,30.1202 -46.907,0 -94.4752,4.7785 -105.7072,10.6188 -52.013,27.0455 -315.4695,267.3268 -344.3782,314.0845 -10.8057,17.4772 -22.7427,59.8807 -27.4848,97.6329 -10.0859,80.2943 -27.1632,110.4258 -62.4816,110.2437 -36.0021,-0.1859 -133.3489,-55.5114 -355.9961,-202.3249 -226.02575,-149.0418 -244.28717,-158.2542 -279.97176,-141.2378 -33.27458,15.8672 -36.81825,50.6148 -10.43617,102.3292 23.45684,45.9804 485.20303,767.6524 546.51923,854.1653 26.4679,37.3447 54.5734,64.3448 82.263,79.0287 l 42.0596,22.3041 166.6948,-25.5555 c 277.2224,-42.5004 249.9884,-42.454 277.118,-0.4719 12.8644,19.9073 99.9759,177.083 193.581,349.2795 198.9913,366.0655 257.3112,459.6185 300.8125,482.5439 44.7358,23.5761 185.7909,28.8002 251.6335,9.3193 75.5567,-22.3547 126.0525,-62.7267 531.9255,-425.2812 371.4936,-331.8441 394.3217,-361.0696 394.3217,-504.8246 0,-92.011 -25.8582,-146.0036 -104.7001,-218.6172 -34.693,-31.952 -104.5842,-83.1078 -155.3139,-113.6793 -357.0743,-215.1853 -594.6477,-364.5659 -599.3712,-376.8704 -3.0473,-7.938 14.552,-93.7475 39.1097,-190.688 50.0968,-197.756 50.2584,-215.4716 2.5777,-282.488 -31.9227,-44.8677 -110.3685,-108.5263 -520.9063,-422.7134 -374.0566,-286.2677 -404.7436,-305.3858 -437.5488,-272.593 z m 201.0667,884.5072 c 24.6514,14.6091 290.942,175.7754 591.7567,358.1472 859.6763,521.1874 831.8582,502.5801 850.9733,569.2055 13.3688,46.5975 11.2033,127.2783 -4.197,156.3648 -18.3481,34.6538 -159.8094,171.5787 -393.3338,380.7209 -367.3423,328.9882 -390.1906,344.9865 -508.3777,355.9667 -100.1858,9.3078 -70.479,50.4894 -391.8615,-543.226 -100.1672,-185.0472 -222.2809,-410.0476 -271.3637,-500.001 -134.5514,-246.5913 -254.1701,-484.9466 -254.1701,-506.4661 0,-33.7361 283.5078,-297.2705 319.803,-297.2728 8.7726,-5e-4 36.1194,11.9518 60.7708,26.5608 z"
         id="path1404" />
      <path
         style="fill:#ffffff;stroke-width:9.34762"
         d="m 897.0599,2187.7462 c -33.68317,33.6705 -17.59184,137.1988 23.79225,153.0735 23.49341,9.0119 66.49391,6.8655 91.60745,-4.5728 37.9367,-17.2787 59.9204,-82.0659 42.9693,-126.6338 -13.5117,-35.525 -23.5542,-40.2494 -85.91159,-40.4153 -41.42116,-0.1108 -58.05008,4.1465 -72.45741,18.5484 z"
         id="path1443" />
      <path
         style="fill:#ffffff;stroke-width:9.34762"
         d="m 855.63956,1891.8523 c -41.80691,41.7912 -26.33508,129.5338 27.13517,153.8872 79.19358,36.0696 155.89437,-21.9915 142.01307,-107.5008 -7.9206,-48.7905 -25.36624,-61.7431 -89.3959,-66.3729 -50.17125,-3.6278 -58.12275,-1.6349 -79.75234,19.9865 z"
         id="path1482" />
      <path
         style="fill:#ffffff;stroke-width:9.34762"
         d="m 852.9014,1598.7052 c -49.98675,30.4666 -52.51525,93.028 -5.51942,136.5658 44.39867,41.1318 128.49058,29.4998 151.48783,-20.9548 5.71029,-12.5275 10.38199,-41.2664 10.38199,-63.8638 0,-31.8631 -4.6646,-44.3526 -20.7789,-55.6353 -29.19842,-20.4436 -98.93134,-18.4439 -135.5715,3.8881 z"
         id="path1521" />
      <path
         style="fill:#ffffff;stroke-width:9.34762"
         d="m 1200.6718,1595.1079 c -5.0092,1.22 -20.1452,4.6345 -33.6351,7.5888 -15.7713,3.454 -28.7151,15.4781 -36.2584,33.6826 -15.6163,37.6871 -6.9816,111.9234 14.8768,127.9006 19.8015,14.4739 109.629,16.332 134.9398,2.7913 29.6561,-15.8655 35.9255,-107.471 10.1377,-148.1296 -7.626,-12.0239 -70.3681,-28.6279 -90.0608,-23.8337 z"
         id="path1560" />
      <path
         style="fill:#ffffff;stroke-width:9.34762"
         d="m 1144.3922,1930.3117 c -17.7,17.6935 -22.9483,32.7523 -22.9483,65.8455 0,61.4013 28.8943,88.7852 93.683,88.7852 26.2824,0 55.5449,-4.1508 65.0277,-9.224 20.166,-10.7883 32.7605,-70.5852 23.6247,-112.1646 -9.7126,-44.2046 -27.889,-56.1818 -85.2602,-56.1818 -41.8719,0 -55.3515,4.1714 -74.1269,22.9397 z"
         id="path1599" />
      <path
         style="fill:#ffffff;stroke-width:9.34762"
         d="m 1440.8528,1687.9216 c -23.021,29.2556 -35.0622,107.6346 -20.6667,134.5231 9.3101,17.3895 18.9242,19.5066 88.5837,19.5066 87.9833,0 89.49,-1.2029 89.49,-71.4723 0,-51.5782 -11.1997,-73.7043 -46.5596,-91.9827 -42.926,-22.1894 -89.0564,-18.2671 -110.8474,9.4253 z"
         id="path1638" />
      <path
         style="fill:#ffffff;stroke-width:9.34762"
         d="m 1777.7669,1516.717 c -30.6054,30.5939 -0.1108,101.9726 182.8619,428.0382 152.2218,271.2642 142.941,246.0175 104.8708,285.2811 -31.4283,32.4135 -31.6552,32.4764 -117.067,32.4764 -105.2679,0 -108.8839,2.1279 -298.2243,175.489 -140.1832,128.3525 -173.4401,173.644 -173.542,236.341 -0.1353,83.2264 -32.2816,128.5655 -82.6253,116.5345 -36.7649,-8.786 -152.4574,-77.3321 -352.0664,-208.5948 -210.20587,-138.231 -229.18895,-147.6134 -264.54746,-130.7525 -32.87317,15.6758 -36.87625,50.5059 -11.51575,100.1978 29.67451,58.145 495.59321,785.8125 557.41571,870.5668 17.234,23.6263 49.8035,52.7513 72.3772,64.7221 45.7473,24.2596 16.1108,26.0077 314.6941,-18.5631 69.3894,-10.3583 133.2622,-16.5806 141.9393,-13.8275 19.2363,6.103 21.4822,9.9284 227.3954,387.3289 194.3788,356.2598 253.1461,450.2248 296.306,473.7745 24.7523,13.5056 52.4343,16.8806 138.4552,16.8806 159.0464,0 153.8599,3.2921 553.0143,-351.032 466.3842,-414.0033 486.4112,-438.1806 486.4112,-587.2115 0,-89.4963 -25.9893,-145.5362 -99.2782,-214.0684 -59.2011,-55.3588 -105.75,-86.2214 -383.8621,-254.5077 -272.8127,-165.0792 -378.648,-234.2494 -378.648,-247.4706 0,-7.0194 19.339,-91.1596 42.9754,-186.9783 29.9587,-121.4483 41.1892,-183.7329 37.0784,-205.6373 -14.5962,-77.7753 -57.4875,-115.785 -584.9177,-518.3469 -344.308,-262.7938 -377.2018,-282.9268 -409.5007,-250.6403 z m 724.9767,1202.087 c 928.8353,562.7302 900.7171,544.0988 918.675,608.7167 12.0802,43.4676 11.8105,114.0297 -0.5625,147.0027 -13.2565,35.3297 -72.2375,94.7933 -293.9813,296.387 -263.9557,239.9702 -407.7544,364.4169 -464.947,402.3763 -49.0072,32.5266 -117.075,51.8465 -182.6663,51.8465 -59.7259,0 -57.6574,3.2423 -390.5371,-612.1505 -372.9795,-689.5256 -445.16,-825.8883 -468.2699,-884.6493 l -24.4693,-62.2179 25.2689,-33.1165 c 49.3299,-64.6505 271.701,-257.8215 297.1557,-258.1354 8.9637,-0.1109 271.9134,154.6627 584.3332,343.9404 z"
         id="path1716" />
    </g>
  </g>
  <rect
     style="fill:#f95b3d;fill-opacity:1;stroke-width:0.187413"
     id="rect866-3-0-1-8"
     width="41.070393"
     height="0.35927898"
     x="326.88062"
     y="73.407997"
     transform="matrix(0.73437855,0.67874011,-0.69313672,0.72080614,0,0)"
     inkscape:transform-center-x="2.9960092"
     inkscape:transform-center-y="14.387213" />
  <rect
     style="fill:#f95b3d;fill-opacity:1;stroke-width:0.187413"
     id="rect866-3-0-1-00"
     width="41.070393"
     height="0.35927898"
     x="327.74683"
     y="75.033539"
     transform="matrix(0.73437855,0.67874011,-0.69313672,0.72080614,0,0)"
     inkscape:transform-center-x="2.9960092"
     inkscape:transform-center-y="14.387213" />
  <rect
     style="fill:#f95b3d;fill-opacity:1;stroke-width:0.187413"
     id="rect866-3-0-1-16"
     width="41.070393"
     height="0.35927898"
     x="328.6828"
     y="74.855309"
     transform="matrix(0.73437855,0.67874011,-0.69313672,0.72080614,0,0)"
     inkscape:transform-center-x="2.9960092"
     inkscape:transform-center-y="14.387213" />
  <rect
     style="fill:#f95b3d;fill-opacity:1;stroke-width:0.187413"
     id="rect866-3-0-1-0"
     width="41.070393"
     height="0.35927898"
     x="328.68842"
     y="74.568779"
     transform="matrix(0.73437855,0.67874011,-0.69313672,0.72080614,0,0)"
     inkscape:transform-center-x="2.9960092"
     inkscape:transform-center-y="14.387213" />
  <rect
     style="fill:#f95b3d;fill-opacity:1;stroke-width:0.187413"
     id="rect866-3-0-1-7"
     width="41.070393"
     height="0.35927898"
     x="328.19092"
     y="74.334137"
     transform="matrix(0.73437855,0.67874011,-0.69313672,0.72080614,0,0)"
     inkscape:transform-center-x="2.9960092"
     inkscape:transform-center-y="14.387213" />
  <rect
     style="fill:#f95b3d;fill-opacity:1;stroke-width:0.187413"
     id="rect866-3-0-1-5"
     width="41.070393"
     height="0.35927898"
     x="328.33987"
     y="74.053246"
     transform="matrix(0.73437855,0.67874011,-0.69313672,0.72080614,0,0)"
     inkscape:transform-center-x="2.9960092"
     inkscape:transform-center-y="14.387213" />
  <rect
     style="fill:#f95b3d;fill-opacity:1;stroke-width:0.192639"
     id="rect866-3-0-1-1"
     width="42.196301"
     height="0.36946735"
     x="327.39767"
     y="71.122429"
     transform="matrix(0.72907842,0.68443017,-0.68750272,0.7261818,0,0)"
     inkscape:transform-center-x="3.0559172"
     inkscape:transform-center-y="14.905555" />
  <rect
     style="fill:#f95b3d;stroke-width:0.782467;fill-opacity:1"
     id="rect866"
     width="171.43289"
     height="1.5003754"
     x="35.339371"
     y="371.75574"
     transform="matrix(0.85621982,-0.51661168,0.50641218,0.86229154,0,0)"
     inkscape:transform-center-x="-54.578155"
     inkscape:transform-center-y="28.527677" />
  <rect
     style="fill:#f95b3d;stroke-width:0.782467;fill-opacity:1"
     id="rect866-3"
     width="171.43289"
     height="1.5003754"
     x="-150.16277"
     y="296.01114"
     transform="matrix(0.47382034,-0.88062153,0.87493537,0.48423971,0,0)"
     inkscape:transform-center-x="-61.498788"
     inkscape:transform-center-y="-3.2406578" />
  <rect
     style="fill:#f95b3d;fill-opacity:1;stroke-width:0.782467"
     id="rect866-3-2"
     width="171.43289"
     height="1.5003754"
     x="-149.60538"
     y="296.31903"
     transform="matrix(0.47382034,-0.88062153,0.87493537,0.48423971,0,0)"
     inkscape:transform-center-x="-61.498788"
     inkscape:transform-center-y="-3.2406578" />
  <rect
     style="fill:#f95b3d;fill-opacity:1;stroke-width:0.175019"
     id="rect866-3-0"
     width="38.287243"
     height="0.33610466"
     x="326.1694"
     y="64.831169"
     transform="matrix(0.71394455,0.70020224,-0.67149984,0.7410047,0,0)"
     inkscape:transform-center-x="2.7152626"
     inkscape:transform-center-y="13.83637" />
  <rect
     style="fill:#f95b3d;fill-opacity:1;stroke-width:0.187413"
     id="rect866-3-0-1"
     width="41.070393"
     height="0.35927898"
     x="328.36472"
     y="73.75209"
     transform="matrix(0.73437855,0.67874011,-0.69313672,0.72080614,0,0)"
     inkscape:transform-center-x="2.9960092"
     inkscape:transform-center-y="14.387213" />
  <rect
     style="fill:#f95b3d;fill-opacity:1;stroke-width:0.782467"
     id="rect866-3-22"
     width="171.43289"
     height="1.5003754"
     x="-150.19229"
     y="297.6199"
     transform="matrix(0.47382034,-0.88062153,0.87493537,0.48423971,0,0)"
     inkscape:transform-center-x="-61.498788"
     inkscape:transform-center-y="-3.2406578" />
  <rect
     style="fill:#f95b3d;fill-opacity:1;stroke-width:0.807765"
     id="rect866-3-00"
     width="176.87294"
     height="1.5497794"
     x="34.935169"
     y="370.47348"
     transform="matrix(0.85627361,-0.51652251,0.5044906,0.86341718,0,0)"
     inkscape:transform-center-x="-56.239279"
     inkscape:transform-center-y="29.55135" />
  <rect
     style="fill:#f95b3d;fill-opacity:1;stroke-width:0.75"
     id="rect1918"
     width="39.277523"
     height="2.0068808"
     x="325.08914"
     y="80.98925"
     transform="rotate(41.304202)"
     inkscape:transform-center-x="-0.28669725"
     inkscape:transform-center-y="-6.0206422" />
</svg>
