<?xml version="1.0" encoding="UTF-8" standalone="no"?>
<svg
   version="1.0"
   width="500.000000pt"
   height="500.000000pt"
   viewBox="0 0 500.000000 500.000000"
   preserveAspectRatio="xMidYMid meet"
   id="svg8"
   sodipodi:docname="CSALT.svg"
   inkscape:version="1.1.1 (3bf5ae0d25, 2021-09-20)"
   xmlns:inkscape="http://www.inkscape.org/namespaces/inkscape"
   xmlns:sodipodi="http://sodipodi.sourceforge.net/DTD/sodipodi-0.dtd"
   xmlns="http://www.w3.org/2000/svg"
   xmlns:svg="http://www.w3.org/2000/svg">
  <defs
     id="defs12" />
  <sodipodi:namedview
     id="namedview10"
     pagecolor="#ffffff"
     bordercolor="#666666"
     borderopacity="1.0"
     inkscape:pageshadow="2"
     inkscape:pageopacity="0.0"
     inkscape:pagecheckerboard="0"
     inkscape:document-units="pt"
     showgrid="false"
     inkscape:zoom="1.308"
     inkscape:cx="333.7156"
     inkscape:cy="333.7156"
     inkscape:window-width="1920"
     inkscape:window-height="1057"
     inkscape:window-x="1912"
     inkscape:window-y="-8"
     inkscape:window-maximized="1"
     inkscape:current-layer="g6" />
  <g
     transform="translate(0.000000,500.000000) scale(0.100000,-0.100000)"
     fill="#000000"
     stroke="none"
     id="g6"
     style="fill:#93aaff;fill-opacity:1">
    <path
       d="M2355 4030 c-191 -20 -327 -59 -520 -150 -248 -116 -499 -341 -641 -574 -94 -156 -182 -387 -210 -551 -22 -131 -22 -376 0 -508 27 -164 116 -397 210 -553 140 -229 394 -460 629 -569 260 -121 424 -158 687 -157 268 1 427 41 695 172 278 136 518 378 660 665 128 258 169 427 169 695 0 268 -41 437 -169 695 -105 212 -253 389 -453 540 -93 71 -288 172 -434 225 -163 59 -438 90 -623 70z m962 -616 c15 -17 23 -42 28 -91 3 -37 13 -114 21 -171 20 -147 19 -167 -12 -191 -53 -41 -65 -35 -219 104 -44 40 -125 112 -180 162 -124 111 -135 129 -113 177 10 21 26 36 40 39 13 2 111 2 218 0 189 -5 196 -6 217 -29z m-545 -67 c52 -24 494 -414 522 -459 11 -18 17 -52 18 -96 2 -115 7 -111 -332 -316 -96 -58 -181 -110 -188 -114 -11 -7 -7 -30 17 -115 36 -122 37 -132 14 -174 -25 -44 -544 -443 -577 -443 -50 0 -42 32 47 187 46 82 94 167 107 189 l22 42 -22 30 c-20 27 -25 29 -51 20 -58 -20 -89 -4 -203 105 -106 101 -108 103 -105 144 4 48 -13 73 -48 73 -14 0 -87 -43 -180 -106 -86 -59 -164 -109 -175 -112 -21 -5 -48 14 -48 35 0 15 85 151 287 461 54 83 103 147 117 153 19 9 50 6 138 -11 62 -12 120 -24 129 -26 11 -3 27 17 54 68 53 102 225 419 238 439 33 53 137 65 219 26z m-695 -1109 c162 -148 213 -201 213 -220 0 -29 -88 -118 -117 -118 -16 0 -60 34 -141 107 -157 144 -172 160 -172 182 0 29 87 121 115 121 16 0 51 -25 102 -72z m-309 -104 c15 -10 22 -25 22 -48 0 -41 -15 -56 -60 -56 -45 0 -60 15 -60 56 0 34 28 64 60 64 9 0 26 -7 38 -16z m160 -156 c7 -7 12 -29 12 -50 0 -41 -19 -58 -64 -58 -50 0 -75 63 -39 102 18 20 73 24 91 6z m-166 -43 c17 -39 0 -79 -36 -83 -16 -2 -39 -1 -52 2 -21 6 -24 12 -24 50 0 23 3 46 7 49 3 4 26 7 50 7 37 0 45 -4 55 -25z m346 -107 c7 -7 12 -26 12 -43 0 -40 -16 -55 -60 -55 -44 0 -60 15 -60 55 0 40 16 55 60 55 20 0 41 -5 48 -12z m-180 -40 c20 -20 15 -86 -7 -98 -50 -26 -101 -1 -101 50 0 16 7 36 16 44 18 19 75 21 92 4z m-190 -14 c26 -18 30 -65 6 -88 -18 -19 -75 -21 -92 -4 -19 19 -15 85 6 97 25 15 54 13 80 -5z"
       id="path2"
       style="fill:#93aaff;fill-opacity:1" />
    <path
       d="M2623 3293 c-10 -7 -53 -85 -196 -353 -27 -52 -53 -99 -57 -105 -4 -5 -25 -44 -48 -85 -22 -41 -63 -118 -91 -170 -29 -52 -68 -128 -89 -169 l-37 -73 95 -89 c52 -49 101 -89 109 -89 7 0 66 32 130 72 64 39 211 129 326 198 346 209 429 261 453 283 18 17 22 31 22 78 0 67 28 35 -260 294 -229 206 -228 205 -292 211 -29 3 -58 1 -65 -3z m579 -490 c23 -21 23 -65 1 -85 -25 -22 -882 -538 -893 -538 -5 0 -45 32 -90 71 -97 86 -98 96 -37 206 24 43 59 105 77 138 48 85 85 131 136 166 54 37 89 39 168 10 147 -55 378 -44 529 24 63 29 85 30 109 8z"
       id="path4"
       style="fill:#93aaff;fill-opacity:1" />
    <path
       style="fill:none;fill-opacity:1;stroke:none;stroke-width:0.764526"
       d="m 303.39434,372.15648 c -2.24533,-1.77417 -6.91255,-5.94219 -10.37161,-9.26225 -9.66215,-9.27391 -9.69474,-8.98189 3.69297,-33.09498 9.46036,-17.03942 14.89412,-24.67243 20.81614,-29.24123 8.04381,-6.20576 12.43218,-6.76931 23.95929,-3.07685 10.09703,3.23436 18.66568,4.50081 30.45077,4.50061 15.38151,-2.5e-4 25.95873,-2.00027 40.65339,-7.68703 4.27833,-1.65569 8.6184,-3.01035 9.6446,-3.01035 2.7892,0 5.76412,2.73158 6.34456,5.82558 1.05855,5.64257 1.6554,5.18109 -37.14714,28.72186 -46.5367,28.23292 -82.50681,49.55042 -83.60898,49.55042 -0.19337,0 -2.18866,-1.45159 -4.43399,-3.22578 z"
       id="path1328"
       transform="matrix(7.5,0,0,-7.5,0,5000)" />
    <path
       style="fill:#f95b3d;fill-opacity:1;stroke:none;stroke-width:0.764526"
       d="m 296.14738,447.62826 c -1.06496,-2.77524 1.28413,-7.7021 16.64406,-34.90827 l 10.72622,-18.99873 -2.80254,-3.81781 c -3.02462,-4.12036 -3.72789,-4.34408 -9.26936,-2.94872 -4.9012,1.23414 -8.3095,-0.006 -14.98932,-5.45296 -8.56354,-6.98332 -22.57407,-20.83163 -23.47619,-23.20438 -0.44495,-1.1703 -0.809,-4.10477 -0.809,-6.52104 0,-5.47113 -1.72156,-7.73965 -5.87355,-7.73965 -3.19421,0 -9.31822,3.4958 -28.16881,16.07978 -6.73936,4.49894 -14.22767,9.29412 -16.6407,10.65595 -4.22728,2.38573 -4.45809,2.42968 -6.32747,1.20482 -4.20471,-2.75503 -3.97056,-3.29873 12.72244,-29.54197 27.09759,-42.6004 35.3755,-54.38213 39.12837,-55.69039 2.67295,-0.9318 7.53278,-0.3214 23.86406,2.99735 l 11.44134,2.32504 1.70036,-1.72936 c 0.93521,-0.95115 5.19776,-8.26605 9.47234,-16.25535 20.60674,-38.51448 27.67688,-50.90575 30.04983,-52.66589 3.39676,-2.51956 6.88673,-3.52677 12.22019,-3.52677 10.6202,0 14.60222,2.32266 37.3314,21.77488 24.21559,20.72433 44.11424,39.457 46.3054,43.59209 1.36801,2.58166 2.26303,15.29452 1.40048,19.89232 -0.70816,3.77483 -5.7257,9.05686 -13.66566,14.386 -3.44284,2.31076 -17.09687,10.78292 -30.34228,18.82701 -13.24541,8.04409 -24.50521,15.18147 -25.02177,15.86083 -1.08361,1.42513 -1.06615,1.52366 2.91098,16.42204 3.20691,12.01309 3.66396,16.9925 1.8769,20.44828 -1.84635,3.57043 -23.74546,21.63859 -50.1025,41.33773 -22.36178,16.7131 -29.03733,20.50125 -30.30522,17.19717 z m 18.83733,-72.11084 c 6.62768,-3.75724 80.13817,-48.30971 99.61959,-60.3764 5.90921,-3.66013 12.18456,-8.03093 13.94523,-9.71289 3.07203,-2.93468 3.22194,-3.2955 3.71473,-8.94065 0.37574,-4.30433 0.22623,-6.56058 -0.55728,-8.40979 -1.2889,-3.042 -10.3116,-11.79782 -33.77248,-32.77352 -31.33546,-28.01614 -31.70638,-28.27002 -41.48777,-28.39703 -3.33212,-0.0433 -6.42681,0.14903 -6.8771,0.42732 -1.15783,0.71559 -5.67176,8.72087 -21.18667,37.5738 -7.46154,13.87614 -13.8296,25.57339 -14.15124,25.99388 -0.78102,1.02105 -20.3773,37.54439 -27.95132,52.09538 -5.43964,10.45048 -5.91651,11.70727 -4.90663,12.93142 3.76515,4.56406 25.19849,23.27975 26.65378,23.27421 0.25228,-7.6e-4 3.383,-1.65954 6.95716,-3.68573 z"
       id="path1404"
       transform="matrix(7.5,0,0,-7.5,0,5000)" />
    <path
       style="fill:#f95b3d;fill-opacity:1;stroke:none;stroke-width:0.764526"
       d="m 303.39434,372.15648 c -2.24533,-1.77417 -6.91255,-5.94219 -10.37161,-9.26225 -9.66215,-9.27391 -9.69474,-8.98189 3.69297,-33.09498 9.46036,-17.03942 14.89412,-24.67243 20.81614,-29.24123 8.04381,-6.20576 12.43218,-6.76931 23.95929,-3.07685 10.09703,3.23436 18.66568,4.50081 30.45077,4.50061 15.38151,-2.5e-4 25.95873,-2.00027 40.65339,-7.68703 4.27833,-1.65569 8.6184,-3.01035 9.6446,-3.01035 2.7892,0 5.76412,2.73158 6.34456,5.82558 1.05855,5.64257 1.6554,5.18109 -37.14714,28.72186 -46.5367,28.23292 -82.50681,49.55042 -83.60898,49.55042 -0.19337,0 -2.18866,-1.45159 -4.43399,-3.22578 z"
       id="path1480"
       transform="matrix(7.5,0,0,-7.5,0,5000)" />
    <path
       style="fill:#f95b3d;fill-opacity:1;stroke:none;stroke-width:0.764526"
       d="m 283.90603,409.47656 c -5.56669,-4.19201 -19.88234,-17.04074 -28.74407,-25.79868 -7.54823,-7.45982 -7.94558,-8.63068 -4.52762,-13.34146 3.32237,-4.57905 10.72366,-11.0092 12.6719,-11.0092 2.61576,0 7.51751,3.85563 22.24028,17.49381 12.85984,11.91249 19.50386,19.06661 19.4955,20.99227 -0.0129,2.9663 -12.24493,15.03074 -15.23956,15.03074 -0.78356,0 -3.43696,-1.51537 -5.89643,-3.36748 z"
       id="path1519"
       transform="matrix(7.5,0,0,-7.5,0,5000)" />
    <path
       style="fill:#f95b3d;fill-opacity:1;stroke:none;stroke-width:0.764526"
       d="m 224.77064,393.73089 c -1.08361,-1.08362 -1.52905,-2.54842 -1.52905,-5.02823 0,-2.84814 0.41579,-3.91496 2.23477,-5.73395 3.05105,-3.05105 6.76477,-3.05247 10.17672,-0.004 2.11536,1.89008 2.49677,2.75374 2.49677,5.65368 0,5.06812 -1.74864,6.64145 -7.38149,6.64145 -3.4493,0 -4.81747,-0.3488 -5.99772,-1.52905 z"
       id="path1558"
       transform="matrix(7.5,0,0,-7.5,0,5000)" />
    <path
       style="fill:#f95b3d;fill-opacity:1;stroke:none;stroke-width:0.764526"
       d="m 245.09854,414.31443 c -2.76926,-3.29108 -2.67366,-7.00983 0.25549,-9.93899 1.92373,-1.92372 2.81518,-2.23477 6.40486,-2.23477 5.29414,0 6.21002,1.03184 6.24331,7.03379 0.0319,5.75015 -1.65487,7.49221 -7.25441,7.49221 -3.15953,0 -3.94526,-0.32717 -5.64925,-2.35224 z"
       id="path1597"
       transform="matrix(7.5,0,0,-7.5,0,5000)" />
    <path
       style="fill:#f95b3d;fill-opacity:1;stroke:none;stroke-width:0.764526"
       d="m 223.62385,419.22816 c -0.84098,-0.2183 -1.95909,-0.94969 -2.48471,-1.62532 -1.13829,-1.46319 -1.25684,-6.9252 -0.21005,-9.67845 0.70049,-1.84243 1.06338,-1.96109 5.99772,-1.96109 6.11526,0 7.66611,1.10434 8.31186,5.91875 0.57218,4.26592 -1.98245,7.13274 -6.67062,7.48582 -1.87833,0.14146 -4.10322,0.0786 -4.9442,-0.13971 z"
       id="path1636"
       transform="matrix(7.5,0,0,-7.5,0,5000)" />
    <path
       style="fill:#f95b3d;fill-opacity:1;stroke:none;stroke-width:0.764526"
       d="m 221.04268,442.12642 c -1.46023,-1.18242 -1.80015,-2.18636 -1.80015,-5.31662 0,-4.90236 1.10514,-6.94251 4.20784,-7.76795 5.47982,-1.45784 10.49458,1.96772 10.49458,7.1688 0,4.74876 -1.83612,6.60503 -6.9531,7.02937 -3.2919,0.27299 -4.5209,0.0429 -5.94917,-1.1136 z"
       id="path1675"
       transform="matrix(7.5,0,0,-7.5,0,5000)" />
    <path
       style="fill:#f95b3d;fill-opacity:1;stroke:none;stroke-width:0.764526"
       d="m 248.68818,442.10488 c -2.39487,-0.43592 -5.56891,-4.48961 -5.56891,-7.11227 0,-3.1297 1.3974,-5.78811 3.56064,-6.77375 2.32716,-1.06032 7.53537,-1.10165 9.45366,-0.075 3.03195,1.62265 2.85709,10.58693 -0.24422,12.52022 -2.05161,1.27892 -4.92837,1.85451 -7.20117,1.44081 z"
       id="path1753"
       transform="matrix(7.5,0,0,-7.5,0,5000)" />
    <path
       style="fill:#f95b3d;fill-opacity:1;stroke:none;stroke-width:0.764526"
       d="m 270.49406,434.9459 c -3.72368,-1.43544 -4.64768,-8.19126 -1.58512,-11.58963 1.80561,-2.00358 9.6051,-1.87587 11.6721,0.19113 1.99673,1.99673 2.08678,7.55163 0.16096,9.92991 -1.58905,1.96239 -6.9675,2.73316 -10.24794,1.46859 z"
       id="path1792"
       transform="matrix(7.5,0,0,-7.5,0,5000)" />
    <path
       style="fill:#f95b3d;fill-opacity:1;stroke:none;stroke-width:0.764526"
       d="m 436.54434,272.85133 c -3.3007,-1.98324 -7.6755,-5.71593 -27.14067,-23.15713 -27.80933,-24.91773 -30.96455,-28.21565 -30.96045,-32.3606 0.003,-3.30202 2.17952,-7.331 4.68373,-8.67121 2.5039,-1.34005 51.07315,-0.53182 55.32871,0.92071 5.15223,1.75859 5.95285,4.41147 9.19603,30.47133 1.54329,12.40074 2.628,23.87377 2.41046,25.49564 -0.42356,3.15785 -2.68759,6.10379 -6.02571,7.84061 -2.80766,1.46082 -4.34773,1.34995 -7.4921,-0.53935 z"
       id="path1831"
       transform="matrix(7.5,0,0,-7.5,0,5000)" />
  </g>
</svg>
