<?xml version="1.0" encoding="UTF-8" standalone="no"?>
<svg
   version="1.0"
   width="500.000000pt"
   height="500.000000pt"
   viewBox="0 0 500.000000 500.000000"
   preserveAspectRatio="xMidYMid meet"
   id="svg8"
   sodipodi:docname="crypto_tomb_cash.svg"
   inkscape:version="1.1.1 (3bf5ae0d25, 2021-09-20)"
   xmlns:inkscape="http://www.inkscape.org/namespaces/inkscape"
   xmlns:sodipodi="http://sodipodi.sourceforge.net/DTD/sodipodi-0.dtd"
   xmlns="http://www.w3.org/2000/svg"
   xmlns:svg="http://www.w3.org/2000/svg">
  <defs
     id="defs12" />
  <sodipodi:namedview
     id="namedview10"
     pagecolor="#ffffff"
     bordercolor="#666666"
     borderopacity="1.0"
     inkscape:pageshadow="2"
     inkscape:pageopacity="0.0"
     inkscape:pagecheckerboard="0"
     inkscape:document-units="pt"
     showgrid="false"
     inkscape:zoom="1.308"
     inkscape:cx="183.10398"
     inkscape:cy="333.7156"
     inkscape:window-width="1920"
     inkscape:window-height="1057"
     inkscape:window-x="1912"
     inkscape:window-y="-8"
     inkscape:window-maximized="1"
     inkscape:current-layer="g6" />
  <g
     transform="translate(0.000000,500.000000) scale(0.100000,-0.100000)"
     fill="#000000"
     stroke="none"
     id="g6">
    <path
       d="M2360 4030 c-198 -19 -339 -60 -545 -160 -239 -115 -482 -335 -616 -556 -101 -168 -187 -390 -215 -559 -22 -132 -22 -387 0 -511 40 -224 170 -520 299 -679 148 -183 344 -345 521 -430 269 -129 436 -169 706 -167 268 1 427 41 695 172 278 136 518 378 660 665 128 258 169 427 169 695 0 268 -41 437 -169 695 -105 212 -253 389 -453 540 -93 71 -288 172 -434 225 -162 58 -429 89 -618 70z m877 -588 c88 -9 99 -21 108 -112 4 -36 13 -111 21 -166 20 -141 18 -173 -8 -201 -41 -44 -74 -33 -184 64 -54 47 -121 108 -149 134 -27 26 -81 73 -118 105 -37 32 -70 69 -74 83 -8 34 8 73 37 88 28 14 245 17 367 5z m-470 -87 c36 -15 110 -77 278 -230 50 -45 124 -112 167 -149 83 -73 108 -116 108 -189 0 -74 -35 -125 -120 -179 -41 -27 -82 -51 -90 -55 -8 -3 -37 -21 -65 -38 -37 -24 -247 -152 -262 -160 -1 0 11 -47 27 -103 17 -56 30 -114 30 -128 0 -37 -25 -79 -62 -105 -18 -13 -35 -26 -38 -29 -8 -9 -432 -334 -461 -353 -14 -10 -33 -15 -42 -11 -33 12 -29 43 15 121 24 43 47 85 51 93 4 8 13 24 20 35 7 11 32 55 56 98 l43 78 -22 24 c-19 20 -28 23 -74 18 -48 -5 -54 -3 -101 35 -28 22 -80 70 -117 106 -66 63 -68 67 -68 113 0 54 -12 73 -46 73 -19 0 -202 -116 -312 -197 -20 -15 -43 -23 -60 -21 -39 4 -41 44 -4 99 16 24 56 87 90 139 34 52 90 140 126 195 36 55 78 121 93 147 15 26 42 55 58 64 30 16 38 15 158 -6 78 -14 131 -20 136 -14 5 5 24 38 43 74 207 388 234 434 263 452 37 22 131 24 182 3z m-658 -1144 c177 -162 181 -166 181 -192 0 -34 -84 -119 -117 -119 -24 0 -88 52 -265 219 -64 60 -63 81 6 149 40 39 59 50 72 45 11 -3 66 -49 123 -102z m-337 -78 c20 -18 24 -73 6 -91 -7 -7 -28 -12 -48 -12 -20 0 -41 5 -48 12 -17 17 -15 74 4 92 20 21 63 20 86 -1z m156 -155 c16 -16 16 -80 0 -96 -15 -15 -63 -16 -89 -2 -26 14 -27 84 -1 99 24 14 75 14 90 -1z m-176 -25 c20 -18 23 -54 8 -84 -8 -14 -21 -19 -55 -19 -34 0 -47 5 -55 19 -14 28 -13 53 6 79 18 27 69 30 96 5z m366 -160 c2 -33 -1 -44 -20 -57 -29 -20 -62 -20 -82 0 -16 16 -22 85 -9 98 4 4 30 6 58 4 l50 -3 3 -42z m-184 -9 c10 -26 7 -79 -6 -92 -7 -7 -28 -12 -48 -12 -45 0 -60 15 -60 60 0 20 5 41 12 48 18 18 95 15 102 -4z m-192 -11 c20 -18 24 -73 6 -91 -7 -7 -29 -12 -49 -12 -61 0 -90 59 -49 100 24 24 67 26 92 3z"
       id="path2"
       style="fill:#f95b3d;fill-opacity:1" />
    <path
       d="M2634 3293 c-12 -2 -24 -12 -27 -21 -3 -9 -22 -46 -42 -82 -48 -85 -95 -171 -163 -300 -30 -58 -58 -109 -62 -115 -4 -5 -34 -59 -65 -120 -32 -60 -61 -114 -65 -120 -33 -46 -99 -186 -94 -199 7 -19 182 -176 196 -176 5 0 33 15 61 34 29 18 88 55 132 81 82 49 378 228 405 245 63 39 228 139 258 157 57 34 72 58 72 116 0 47 -3 53 -52 101 -57 55 -379 343 -419 374 -25 20 -97 33 -135 25z m568 -490 c10 -9 18 -30 18 -49 0 -33 -16 -45 -350 -244 -8 -4 -136 -81 -283 -171 -233 -141 -270 -161 -290 -152 -35 16 -154 130 -160 153 -5 20 12 58 98 215 62 113 81 139 130 183 73 64 99 69 192 36 65 -23 99 -29 203 -32 77 -3 146 0 180 8 68 15 172 49 185 61 15 14 57 10 77 -8z"
       id="path4"
       style="fill:#f95b3d;fill-opacity:1" />
    <path
       style="fill:#ffffff;stroke-width:0.764526"
       d="m 301.86529,371.40677 c -6.2397,-4.90775 -15.84476,-14.90388 -16.38356,-17.05061 -0.55826,-2.22431 2.0518,-8.07122 10.92036,-24.46319 11.06569,-20.45299 18.11148,-29.07638 27.57812,-33.75301 4.73749,-2.34039 6.64056,-2.19973 17.60557,1.30127 9.78738,3.12499 15.07496,3.7495 31.88517,3.76588 12.84855,0.0125 15.40885,-0.20191 22.17125,-1.8569 9.14106,-2.23712 18.28762,-5.30593 20.88324,-7.00664 2.64552,-1.73342 8.40136,-1.02856 10.25072,1.25532 3.81351,4.70947 2.61216,8.33312 -4.43592,13.38011 -5.57238,3.99026 -96.46887,58.99151 -106.591,64.49796 -3.15367,1.7156 -6.64916,3.12411 -7.76774,3.13002 -1.24279,0.007 -3.62158,-1.2381 -6.11621,-3.20021 z"
       id="path897"
       transform="matrix(7.5,0,0,-7.5,0,5000)" />
    <path
       style="fill:#ffffff;stroke-width:0.764526"
       d="m 301.86529,371.40677 c -6.39416,-5.02924 -15.85021,-14.92557 -16.41616,-17.18051 -0.40898,-1.62951 0.75256,-4.54271 5.71601,-14.33598 10.21654,-20.15807 15.84101,-29.15402 22.29052,-35.65222 3.60681,-3.63404 7.36305,-6.57357 10.12541,-7.92388 5.08477,-2.48555 7.60719,-2.36916 16.83096,0.77668 9.25459,3.15634 17.044,4.13247 32.96793,4.13139 12.91318,-8.4e-4 15.50814,-0.21908 22.26224,-1.87204 9.14106,-2.23712 18.28762,-5.30593 20.88324,-7.00664 2.64552,-1.73342 8.40136,-1.02856 10.25072,1.25532 3.81727,4.71412 2.61328,8.33231 -4.4575,13.39556 -5.6148,4.02064 -96.51137,59.02393 -106.56942,64.48723 -3.15367,1.71301 -6.64916,3.11939 -7.76774,3.1253 -1.24279,0.007 -3.62158,-1.2381 -6.11621,-3.20021 z"
       id="path936"
       transform="matrix(7.5,0,0,-7.5,0,5000)" />
    <path
       style="fill:#ffffff;stroke-width:0.764526"
       d="m 301.86529,371.43615 c -6.18873,-4.8231 -15.85353,-14.96818 -16.42367,-17.2398 -0.39928,-1.59086 0.80589,-4.60321 5.72352,-14.30607 10.22638,-20.17748 15.84023,-29.15431 22.29052,-35.64367 5.90347,-5.93925 12.35133,-9.9041 16.10656,-9.9041 1.12469,0 5.95966,1.20236 10.74439,2.67191 11.97111,3.67672 18.75836,4.42642 36.46669,4.02801 14.60996,-0.3287 15.3186,-0.41937 24.43762,-3.12681 5.16524,-1.53357 11.21908,-3.65296 13.45297,-4.70976 6.29012,-2.9757 10.90085,-2.3291 13.05178,1.83036 1.50041,2.90146 1.50362,5.38963 0.01,7.52248 -1.85179,2.64381 -12.88101,9.62379 -60.74927,38.44596 -49.56319,29.84272 -56.18763,33.61308 -59.05745,33.61308 -1.14852,0 -3.67447,-1.32761 -6.05337,-3.18159 z"
       id="path975"
       transform="matrix(7.5,0,0,-7.5,0,5000)" />
    <path
       style="fill:#ffffff;stroke-width:0.764526"
       d="m 297.20948,448.71552 c -3.28158,-1.91135 -1.34138,-6.60237 13.75164,-33.24861 14.12833,-24.9431 12.9652,-21.94283 9.83182,-25.361 l -2.63409,-2.87349 h -7.57504 -7.57504 l -4.3157,-3.32876 c -5.87748,-4.53339 -21.88549,-19.64084 -24.18175,-22.82136 -1.37468,-1.90407 -1.94058,-3.83051 -2.15306,-7.32957 -0.39958,-6.57982 -1.39698,-8.81495 -4.29453,-9.62384 -3.27934,-0.91546 -9.37463,2.37465 -30.46897,16.4465 -9.13557,6.09426 -17.61194,11.36779 -18.83637,11.71895 -2.81685,0.80787 -5.7518,-0.55667 -6.07823,-2.82595 -0.41918,-2.91401 2.25537,-7.58026 20.49241,-35.75279 9.79909,-15.13762 19.64362,-30.47601 21.87673,-34.0853 4.56925,-7.38512 9.64115,-12.51185 13.13786,-13.27985 1.39507,-0.30641 6.95366,0.27226 13.67927,1.42407 6.23111,1.06712 13.77879,2.16661 16.77263,2.44333 l 5.44335,0.50311 4.20605,-7.55467 c 2.31334,-4.15507 8.25469,-15.12348 13.20301,-24.37424 16.1692,-30.22796 20.4389,-37.1109 24.24051,-39.07679 3.14089,-1.62421 13.6596,-2.26617 18.85949,-1.151 6.76436,1.4507 10.84818,4.61689 42.90088,33.2612 25.44076,22.73545 29.52024,26.81933 32.17284,32.20753 1.91707,3.89411 2.28864,5.57745 2.31425,10.48441 0.0372,7.11146 -1.73698,11.67434 -6.42733,16.53063 -3.1961,3.30916 -12.73939,10.08237 -20.03223,14.21758 -7.28397,4.13018 -42.81822,25.863 -43.84923,26.81828 -0.86571,0.80212 -0.46763,3.07605 2.42448,13.84922 4.50072,16.76528 4.5789,17.21007 3.63868,20.70175 -1.64949,6.12575 -1.51794,6.01149 -47.65784,41.39373 -29.22547,22.41147 -29.55237,22.61723 -32.86649,20.68693 z m 15.09939,-71.69177 c 2.10244,-1.1844 11.73547,-6.98312 21.40673,-12.88605 9.67125,-5.90293 33.92584,-20.63057 53.89908,-32.72808 19.97324,-12.09752 37.75099,-23.15197 39.50611,-24.56545 3.74342,-3.01475 5.01633,-6.23374 5.06429,-12.80684 0.0558,-7.64967 0.0615,-7.64293 -27.75083,-32.65473 -32.18896,-28.94769 -35.58107,-31.72464 -40.40616,-33.07849 -7.97149,-2.23669 -16.93329,-1.19811 -16.93329,1.96238 0,0.4521 -4.08199,8.25943 -9.07108,17.34962 -4.9891,9.09019 -13.0433,23.92441 -17.89822,32.96493 -4.8549,9.04052 -12.87875,23.8341 -17.83074,32.87462 -13.06419,23.85036 -20.18467,38.1816 -20.18467,40.62521 0,1.68966 1.41135,3.50596 6.6896,8.60905 6.68881,6.46685 18.42476,16.52724 19.24935,16.50112 0.24046,-0.008 2.15738,-0.9829 4.25983,-2.16729 z"
       id="path1014"
       transform="matrix(7.5,0,0,-7.5,0,5000)" />
    <path
       style="fill:#ffffff;stroke-width:0.764526"
       d="m 297.20948,448.71552 c -3.19005,-1.85804 -0.49782,-8.35446 14.07365,-33.96017 3.58933,-6.30734 7.80289,-13.77321 9.36347,-16.59082 l 2.83742,-5.12293 -2.66258,-2.9046 -2.66259,-2.90458 h -7.57075 -7.57075 l -4.14629,-3.14081 c -5.77486,-4.37443 -21.9995,-19.65411 -24.29424,-22.87928 -1.34626,-1.89212 -1.98442,-3.94604 -2.19212,-7.05541 -0.39864,-5.96778 -0.77729,-7.51675 -2.18052,-8.91997 -3.24352,-3.24352 -7.75485,-1.11518 -32.62771,15.39305 -9.14563,6.07 -17.57771,11.30861 -18.73794,11.64136 -2.50188,0.71753 -5.38267,-0.18769 -6.03881,-1.89755 -1.00469,-2.61819 1.79731,-7.87879 15.52008,-29.13805 7.82689,-12.12539 17.99989,-27.96354 22.60666,-35.1959 8.32935,-13.07659 13.2831,-18.85029 16.96645,-19.77476 1.06054,-0.26617 8.78563,0.60859 17.16688,1.94393 8.38124,1.33533 16.18635,2.31554 17.34468,2.17823 1.89995,-0.22521 3.07466,-2.04528 12.00368,-18.59827 23.76833,-44.0627 27.35157,-50.01959 31.32383,-52.07373 3.19921,-1.65437 13.59005,-2.25452 19.12346,-1.10453 6.71394,1.39534 8.8498,3.08032 45.69502,36.04893 24.02307,21.49552 26.9464,24.47728 29.5297,30.11995 2.55001,5.56996 2.65132,13.83586 0.23832,19.44502 -2.28619,5.31439 -9.80064,12.10714 -20.32678,18.37457 -13.61767,8.10818 -46.41233,28.09852 -47.94441,29.22504 -1.37078,1.00792 -1.29481,1.52892 2.04451,14.0226 4.50705,16.86254 4.58273,17.29448 3.64201,20.78802 -1.66503,6.18344 -1.86258,6.35547 -47.07632,40.99417 -29.69276,22.74793 -30.12627,23.02122 -33.44801,21.08649 z m 23.60177,-76.88042 c 6.6769,-4.0534 20.22468,-12.24883 30.10618,-18.2121 37.53441,-22.65116 72.48022,-44.04768 75.42616,-46.18172 4.22405,-3.05987 5.6136,-6.34977 5.6136,-13.29074 0,-5.06114 -0.24493,-6.03293 -2.20113,-8.73338 -2.07108,-2.85906 -26.74747,-25.5205 -49.78664,-45.72133 -5.67661,-4.97726 -11.75122,-9.68544 -13.49914,-10.46261 -3.71711,-1.65272 -11.19082,-2.58379 -15.00159,-1.86888 -2.88771,0.54174 -3.43507,1.47463 -32.12111,54.74575 -4.41539,8.19954 -12.26447,22.64908 -17.44242,32.11009 -12.4044,22.665 -18.89524,35.58084 -19.49933,38.8009 -0.45565,2.42884 -0.15937,2.96427 4.00211,7.23265 5.01448,5.14327 20.82587,18.95116 21.70096,18.95116 0.30938,0 6.02544,-3.3164 12.70235,-7.36979 z"
       id="path1053"
       transform="matrix(7.5,0,0,-7.5,0,5000)" />
    <path
       style="fill:#ffffff;stroke-width:0.764526"
       d="m 296.78899,448.62385 c -2.53823,-2.53822 -0.2203,-7.92182 14.94321,-34.70694 5.45205,-9.6306 10.29498,-18.24021 10.76207,-19.13248 0.72381,-1.38268 0.4706,-2.0602 -1.71437,-4.58715 l -2.56362,-2.96486 h -7.59947 -7.59946 l -4.14629,-3.14081 c -5.73832,-4.34676 -21.99341,-19.64555 -24.26348,-22.83604 -1.38338,-1.94429 -2.01546,-4.12841 -2.4351,-8.41432 -0.71088,-7.26036 -2.09727,-9.13492 -6.3356,-8.56644 -3.59969,0.48282 -9.65992,4.01525 -29.34147,17.1028 -15.97028,10.61969 -18.57961,11.93777 -21.49647,10.85876 -4.45302,-1.64728 -3.10739,-5.46339 8.0798,-22.91372 4.96388,-7.7429 14.9851,-23.36699 22.26939,-34.7202 7.28428,-11.35321 14.63091,-22.08403 16.32584,-23.84625 5.05848,-5.25934 5.71125,-5.35708 20.30955,-3.04109 19.73963,3.13166 20.93007,3.21386 22.43128,1.54885 0.70413,-0.78096 7.88104,-13.63323 15.94869,-28.5606 16.95205,-31.36594 21.73618,-39.10293 25.34821,-40.99359 3.25822,-1.70546 13.42873,-2.28447 19.17466,-1.09162 6.67762,1.38626 8.85112,3.10175 45.6641,36.04151 24.06457,21.53265 26.94441,24.47294 29.5551,30.17543 2.5698,5.6132 2.67052,13.67668 0.24136,19.32343 -2.23604,5.19781 -9.00635,11.49066 -18.76722,17.4437 -4.17388,2.54561 -16.70777,10.16951 -27.85308,16.94201 -11.14531,6.77249 -20.87632,12.76121 -21.62446,13.30825 -1.29128,0.94422 -1.24205,1.43988 0.97133,9.7775 6.26042,23.5826 6.3029,24.19425 2.09156,30.11394 -2.51664,3.53753 -10.89382,10.27838 -47.56566,38.27457 -26.42525,20.17368 -28.18152,21.23424 -30.8104,18.60536 z m 22.11418,-75.63268 c 5.6239,-3.41755 19.34224,-11.72777 30.48521,-18.46716 39.43336,-23.84974 73.05382,-44.38047 76.2664,-46.57297 4.56774,-3.11736 6.30241,-6.88235 6.30241,-13.67897 0,-4.09834 -0.37581,-6.09109 -1.48808,-7.89079 -1.67372,-2.70813 -10.12471,-10.65424 -35.23263,-33.12773 -27.65348,-24.75197 -28.40089,-25.26396 -37.93221,-25.98482 -8.73792,-0.66084 -5.3948,-5.30594 -33.14211,46.04931 -24.83423,45.96366 -27.72903,51.29504 -31.96406,58.8685 -5.16067,9.22882 -10.05996,20.04734 -10.07617,22.25003 -0.008,1.03479 2.5086,4.04153 7.06003,8.43635 7.04903,6.80648 18.10983,16.29845 19.01785,16.32041 0.26295,0.006 5.07946,-2.78461 10.70336,-6.20216 z"
       id="path1092"
       transform="matrix(7.5,0,0,-7.5,0,5000)" />
    <path
       style="fill:#ffffff;stroke-width:0.764526"
       d="m 284.77573,410.27523 c -4.52622,-3.04975 -15.93108,-13.10899 -27.2681,-24.05083 -8.79651,-8.48988 -9.97848,-10.62588 -7.99858,-14.45459 1.59217,-3.07892 12.43339,-13.20712 14.13689,-13.20712 1.78425,0 9.16004,6.16425 26.18928,21.88746 7.4025,6.83477 13.86872,13.41581 14.36939,14.62453 1.28428,3.10053 0.17017,5.5154 -5.08823,11.0289 -4.26697,4.47397 -7.46955,6.74046 -9.5244,6.74046 -0.5521,0 -2.71942,-1.15596 -4.81625,-2.56881 z"
       id="path1131"
       transform="matrix(7.5,0,0,-7.5,0,5000)" />
    <path
       style="fill:#ffffff;stroke-width:0.764526"
       d="m 285.10814,410.60181 c -4.26937,-2.83195 -16.99268,-14.06595 -27.61055,-24.37861 -8.77994,-8.52757 -9.95423,-10.65217 -7.98854,-14.45339 1.59217,-3.07892 12.43339,-13.20712 14.13689,-13.20712 1.78156,0 9.18792,6.1778 25.95303,21.64798 13.56084,12.5134 15.90937,15.39614 15.11654,18.55503 -0.56215,2.23977 -9.1096,11.48751 -11.99831,12.98132 -2.95452,1.52784 -3.7626,1.40622 -7.60906,-1.14521 z"
       id="path1170"
       transform="matrix(7.5,0,0,-7.5,0,5000)" />
    <path
       style="fill:#ffffff;stroke-width:0.764526"
       d="m 286.28793,411.42315 c -3.99346,-2.43531 -13.29312,-10.49198 -25.33253,-21.9466 -12.41065,-11.80781 -13.56965,-13.60072 -11.44635,-17.70674 1.57693,-3.04945 12.42591,-13.20712 14.10597,-13.20712 1.83222,0 9.13832,6.06748 25.58705,21.24923 13.90695,12.83575 16.3116,15.77367 15.51344,18.95378 -0.56215,2.23977 -9.1096,11.48751 -11.99831,12.98132 -2.75696,1.42568 -3.63265,1.38157 -6.42927,-0.32387 z"
       id="path1209"
       transform="matrix(7.5,0,0,-7.5,0,5000)" />
    <path
       style="fill:#ffffff;stroke-width:0.764526"
       d="m 438.08997,273.61191 c -3.88668,-1.55079 -11.50708,-7.95245 -38.98517,-32.75022 -13.16402,-11.87995 -19.76504,-18.50688 -20.71218,-20.79347 -1.18708,-2.86588 -0.004,-7.26076 2.61651,-9.72297 2.53152,-2.37825 8.64193,-3.12491 25.7187,-3.14269 16.50214,-0.0172 29.82066,1.08047 33.33301,2.74719 1.36486,0.64767 2.99099,2.26911 3.61363,3.60321 0.62265,1.3341 1.85096,8.27426 2.72959,15.42258 0.87862,7.14831 2.10924,16.78134 2.7347,21.40672 1.51704,11.21874 1.45322,14.59887 -0.34576,18.31508 -2.3484,4.85114 -6.30672,6.6687 -10.70303,4.91457 z"
       id="path1248"
       transform="matrix(7.5,0,0,-7.5,0,5000)" />
    <path
       style="fill:#ffffff;stroke-width:0.764526"
       d="m 438.08997,273.61191 c -3.99369,-1.59348 -11.90048,-8.24292 -39.06964,-32.85671 -21.30774,-19.30366 -22.42387,-20.71855 -20.63047,-26.15263 1.36152,-4.12544 3.81664,-5.88502 9.32173,-6.68088 6.57361,-0.95032 31.20976,-0.9188 41.4583,0.053 10.13734,0.9613 13.18612,2.10933 14.58392,5.49163 0.98331,2.37934 4.16337,25.0572 5.9938,42.74336 0.75086,7.25504 0.69377,8.50522 -0.53539,11.72374 -2.06681,5.41186 -6.33234,7.58962 -11.12225,5.67844 z"
       id="path1287"
       transform="matrix(7.5,0,0,-7.5,0,5000)" />
    <path
       style="fill:#ffffff;stroke-width:0.764526"
       d="m 296.78899,448.62385 c -2.54839,-2.54839 -0.36904,-7.57884 15.40544,-35.55922 5.73955,-10.18066 10.43554,-18.96659 10.43554,-19.52429 0,-0.5577 -0.99408,-2.20474 -2.20906,-3.6601 l -2.20907,-2.6461 -7.55841,-7.7e-4 c -7.3337,-7.6e-4 -7.66012,-0.0753 -10.97901,-2.50581 -5.62252,-4.11745 -23.6471,-20.99981 -25.36268,-23.75543 -1.01875,-1.63637 -1.79447,-4.60935 -2.14992,-8.23965 -0.90001,-9.1921 -3.6906,-10.66941 -11.92423,-6.31259 -2.477,1.31071 -12.28363,7.51396 -21.7925,13.78498 -9.50887,6.27103 -18.32927,11.70026 -19.60089,12.06495 -2.90566,0.83334 -5.83254,-0.49682 -6.16404,-2.80133 -0.13218,-0.9189 0.41351,-3.14652 1.21264,-4.95029 1.37354,-3.10027 42.71012,-67.85568 46.56439,-72.94498 0.99431,-1.31292 3.30958,-3.1838 5.14505,-4.15751 l 3.33722,-1.77039 12.89266,2.04563 c 19.90537,3.15832 21.08385,3.2405 22.5566,1.5731 0.68978,-0.78105 7.86702,-13.63332 15.94942,-28.56069 16.91347,-31.23745 21.75953,-39.07759 25.37356,-41.05028 2.02408,-1.10482 4.28773,-1.38091 11.32194,-1.38091 10.85641,0 12.55819,0.7239 23.87387,10.15541 9.87589,8.23146 49.66132,44.02613 53.41446,48.05662 5.99506,6.43808 7.70897,10.56005 7.70897,18.54017 0,7.53513 -2.11385,11.94541 -8.57174,17.88379 -3.69796,3.40048 -12.96956,9.47631 -32.59264,21.35848 -15.08347,9.13335 -28.02523,17.0462 -28.75945,17.5841 -1.26076,0.92366 -1.22722,1.38158 0.60364,8.241 4.57215,17.12983 5.84795,23.2121 5.38573,25.67594 -1.17669,6.27234 -6.66791,11.03699 -54.70198,47.46428 -22.44239,17.01949 -24.04865,17.94875 -26.60551,15.39189 z m 18.26063,-73.33822 c 3.53846,-2.1556 15.55053,-9.43468 26.6935,-16.17574 47.28703,-28.60681 77.16495,-46.8303 81.93676,-49.97582 6.29267,-4.14806 8.27731,-7.64889 8.27731,-14.6009 0,-2.57306 -0.36163,-5.62944 -0.80363,-6.79197 -0.98625,-2.59405 -7.24945,-8.65466 -30.9242,-29.92393 -22.94518,-20.61383 -31.2947,-27.59199 -34.73367,-29.02889 -1.48558,-0.62071 -5.34603,-1.30986 -8.57878,-1.53144 -5.55204,-0.38054 -5.97642,-0.29614 -7.65879,1.52322 -2.01174,2.17557 -7.18889,11.37007 -25.29318,44.92015 -6.92058,12.82492 -17.17528,31.74694 -22.7882,42.04893 -12.23758,22.46087 -18.15175,34.22519 -18.77676,37.35026 -0.40571,2.02851 0.0428,2.85064 3.63743,6.66731 4.14413,4.40014 21.25094,19.43808 22.11229,19.43808 0.2565,0 3.36146,-1.76367 6.89992,-3.91926 z"
       id="path1326"
       transform="matrix(7.5,0,0,-7.5,0,5000)" />
    <path
       style="fill:#ffffff;stroke-width:0.764526"
       d="m 296.78899,448.62385 c -0.50459,-0.50458 -0.91743,-1.89266 -0.91743,-3.0846 0,-2.39187 6.92687,-16.18585 17.00521,-33.86371 3.60269,-6.31928 7.31967,-13.07312 8.25997,-15.00854 l 1.70964,-3.51893 -2.04617,-2.68266 c -2.33221,-3.0577 -4.23697,-3.6134 -10.45338,-3.04971 -6.0399,0.54768 -7.49399,0.0404 -13.1219,-4.57741 -8.24917,-6.76866 -21.24922,-19.1644 -22.90726,-21.84239 -0.92605,-1.49572 -1.8089,-4.71019 -2.15195,-7.83529 -0.70127,-6.38845 -2.25636,-9.1282 -5.17264,-9.11316 -2.96345,0.0153 -11.21602,4.70581 -29.2255,16.61092 -18.33402,12.11965 -19.85706,12.88813 -22.77971,11.49392 -2.72015,-1.29761 -3.01092,-4.14053 -0.8556,-8.36532 1.88753,-3.69986 41.5073,-65.56718 45.49858,-71.04722 1.40767,-1.93274 4.06493,-4.31276 5.90503,-5.28893 l 3.34563,-1.77485 13.3039,2.0167 c 22.34224,3.38681 20.86875,3.33421 22.64883,0.80844 0.84738,-1.20237 7.99093,-14.05539 15.87454,-28.56227 16.63591,-30.61228 21.42887,-38.33488 25.00292,-40.28576 2.02408,-1.10482 4.28773,-1.38091 11.32194,-1.38091 7.63053,0 9.26373,0.23236 12.36244,1.7588 4.38062,2.15793 13.9261,10.08016 37.33175,30.98331 33.85904,30.23888 35.30311,32.03911 35.30311,44.01009 0,7.11737 -2.11638,11.8199 -7.72881,17.17326 -5.07633,4.84201 -6.89552,6.03118 -38.84467,25.3923 -20.02012,12.13216 -23.88608,14.75454 -23.89144,16.20622 -0.004,0.95257 1.58034,7.91783 3.51968,15.47836 2.49987,9.74577 3.38461,14.50051 3.03999,16.33749 -0.8184,4.36243 -4.34032,8.57897 -12.70395,15.20951 -20.16207,15.98412 -57.67773,44.50547 -62.03346,47.16104 -2.88463,1.75868 -5.25187,1.98873 -6.59929,0.6413 z m 63.75436,-100.97984 c 66.37957,-40.27382 63.80275,-38.67617 66.72671,-41.37095 1.41673,-1.30569 3.0509,-3.48105 3.6315,-4.83413 1.19614,-2.78762 1.40689,-10.66015 0.35915,-13.41591 -0.92427,-2.43101 -7.37071,-8.80695 -24.91514,-24.64266 -37.52393,-33.86932 -39.53635,-35.33495 -49.55837,-36.09291 -5.43381,-0.41096 -5.8439,-0.32958 -7.52849,1.49402 -1.90655,2.06386 -6.92204,10.99578 -25.867,46.06562 -6.58738,12.19419 -16.55841,30.60016 -22.15784,40.90215 -11.43437,21.03727 -19.11484,36.44574 -19.1202,38.35876 -0.005,1.84052 3.03219,5.19801 12.19051,13.47546 10.81097,9.77113 13.62233,11.77021 15.29438,10.87535 0.72597,-0.38853 23.65113,-14.25519 50.94479,-30.8148 z"
       id="path1365"
       transform="matrix(7.5,0,0,-7.5,0,5000)" />
    <path
       style="fill:#ffffff;stroke-width:0.764526"
       d="m 296.78899,448.62385 c -2.48092,-2.48091 0.17884,-8.77402 14.16851,-33.52335 9.00797,-15.93616 11.67247,-20.9429 11.67247,-21.9333 0,-0.34353 -1.01271,-1.73339 -2.25048,-3.08856 -2.22043,-2.43106 -2.34363,-2.46396 -9.22457,-2.46396 -3.83575,0 -7.72556,-0.3909 -8.64402,-0.86865 -4.25329,-2.21245 -25.797,-21.86844 -28.16097,-25.69342 -0.88361,-1.4297 -1.85974,-4.89849 -2.24752,-7.98677 -0.82476,-6.56842 -2.22122,-9.03329 -5.10933,-9.01839 -2.94401,0.0152 -10.90438,4.54105 -29.11098,16.55102 -18.48288,12.19222 -19.97618,12.94583 -22.89423,11.55382 -2.72097,-1.298 -3.01075,-4.14049 -0.8534,-8.37095 1.91814,-3.76138 39.67667,-62.79713 44.6907,-69.87425 2.16437,-3.05494 4.46264,-5.26367 6.72692,-6.46487 l 3.43935,-1.82457 13.63119,2.09055 c 22.6694,3.4767 20.44239,3.4729 22.66086,0.0386 1.05197,-1.62849 8.17536,-14.48612 15.82977,-28.57251 16.27218,-29.94566 21.0412,-37.59868 24.59844,-39.47408 3.6582,-1.92862 15.19274,-2.35597 20.57692,-0.76236 6.17851,1.82871 10.30773,5.13131 43.49731,34.78976 30.37827,27.14623 32.24501,29.53699 32.24501,41.29674 0,7.52688 -2.11452,11.9437 -8.56169,17.88379 -2.83696,2.61381 -8.55219,6.79856 -12.70053,9.29943 -29.19916,17.60306 -48.62633,29.82301 -49.01259,30.82956 -0.24918,0.64936 1.18998,7.66894 3.19814,15.59907 4.09658,16.17725 4.1098,17.62646 0.21078,23.10868 -2.61042,3.67038 -9.02519,8.87791 -42.59624,34.57971 -30.58785,23.41788 -33.09724,24.98182 -35.77982,22.29924 z m 16.44189,-72.35635 c 2.01583,-1.19508 23.79129,-14.37914 48.38992,-29.29791 70.2986,-42.63528 68.02381,-41.11312 69.58692,-46.56337 1.09322,-3.81186 0.91614,-10.41189 -0.3432,-12.79128 -1.50038,-2.83482 -13.06814,-14.03585 -32.16421,-31.14454 -30.03881,-26.91258 -31.90719,-28.22132 -41.57175,-29.11954 -8.19252,-0.76142 -5.76329,-4.13025 -32.04381,44.43813 -8.19102,15.13762 -18.17666,33.54358 -22.19032,40.90214 -11.00272,20.17219 -20.78434,39.67064 -20.78434,41.43101 0,2.75976 23.18338,24.31797 26.15137,24.31815 0.71735,4e-5 2.95359,-0.97771 4.96942,-2.17279 z"
       id="path1404"
       transform="matrix(7.5,0,0,-7.5,0,5000)" />
    <path
       style="fill:#ffffff;stroke-width:0.764526"
       d="m 224.77064,393.73089 c -2.75439,-2.75439 -1.43854,-11.22343 1.94557,-12.52204 1.92114,-0.73721 5.43743,-0.56162 7.49104,0.37407 3.10222,1.41346 4.8999,6.71333 3.51375,10.35917 -1.10489,2.90609 -1.92611,3.29256 -7.02528,3.30614 -3.38715,0.009 -4.74694,-0.3392 -5.92508,-1.51734 z"
       id="path1443"
       transform="matrix(7.5,0,0,-7.5,0,5000)" />
    <path
       style="fill:#ffffff;stroke-width:0.764526"
       d="m 221.38356,417.93624 c -3.41869,-3.41869 -2.15351,-10.5964 2.21893,-12.58862 6.47592,-2.95063 12.74801,1.79901 11.61288,8.79402 -0.64769,3.99126 -2.07428,5.05084 -7.31019,5.42957 -4.10267,0.29677 -4.7529,0.13375 -6.52162,-1.63497 z"
       id="path1482"
       transform="matrix(7.5,0,0,-7.5,0,5000)" />
    <path
       style="fill:#ffffff;stroke-width:0.764526"
       d="m 221.15966,441.91688 c -4.08759,-2.4923 -4.29435,-7.61007 -0.45135,-11.17164 3.63063,-3.36476 10.50711,-2.41321 12.38767,1.71418 0.46694,1.02481 0.84897,3.37576 0.84897,5.22433 0,2.60653 -0.38144,3.62822 -1.69916,4.55119 -2.38766,1.67238 -8.08995,1.50879 -11.08613,-0.31806 z"
       id="path1521"
       transform="matrix(7.5,0,0,-7.5,0,5000)" />
    <path
       style="fill:#ffffff;stroke-width:0.764526"
       d="m 249.598,442.21116 c -0.40963,-0.0998 -1.64734,-0.37912 -2.75045,-0.6208 -1.28968,-0.28255 -2.34813,-1.26617 -2.96498,-2.75538 -1.277,-3.08295 -0.5709,-9.1558 1.21653,-10.4628 1.61924,-1.18402 8.96473,-1.33602 11.03447,-0.22833 2.42509,1.29786 2.93775,8.79158 0.829,12.11762 -0.62361,0.9836 -5.75424,2.34188 -7.36457,1.94969 z"
       id="path1560"
       transform="matrix(7.5,0,0,-7.5,0,5000)" />
    <path
       style="fill:#ffffff;stroke-width:0.764526"
       d="m 244.99583,414.7901 c -1.44739,-1.44739 -1.87656,-2.67927 -1.87656,-5.38643 0,-5.02289 2.36279,-7.263 7.66077,-7.263 2.1492,0 4.5421,0.33955 5.31754,0.75456 1.64903,0.88253 2.67893,5.77415 1.93186,9.17553 -0.79423,3.61612 -2.28057,4.59591 -6.97201,4.59591 -3.424,0 -4.52628,-0.34125 -6.0616,-1.87657 z"
       id="path1599"
       transform="matrix(7.5,0,0,-7.5,0,5000)" />
    <path
       style="fill:#ffffff;stroke-width:0.764526"
       d="m 269.2384,434.61861 c -1.88251,-2.39322 -2.86716,-8.80496 -1.68998,-11.00455 0.76132,-1.42253 1.54749,-1.59571 7.24378,-1.59571 7.19468,0 7.31789,0.0984 7.31789,5.84673 0,4.21931 -0.91583,6.02931 -3.80733,7.52456 -3.5102,1.81519 -7.28244,1.49432 -9.06436,-0.77103 z"
       id="path1638"
       transform="matrix(7.5,0,0,-7.5,0,5000)" />
    <path
       style="fill:#ffffff;stroke-width:0.764526"
       d="m 296.78899,448.62385 c -2.50271,-2.50271 -0.009,-8.34177 14.95323,-35.01529 12.44767,-22.19053 11.68875,-20.12525 8.57563,-23.33717 -2.56999,-2.65156 -2.58856,-2.65671 -9.57296,-2.65671 -8.6081,0 -8.9038,-0.17407 -24.38679,-14.35572 -11.46325,-10.49976 -14.18278,-14.2048 -14.19111,-19.33367 -0.0111,-6.80826 -2.63977,-10.51719 -6.75655,-9.53301 -3.00639,0.71873 -12.46694,6.32609 -28.78964,17.06392 -17.18924,11.30787 -18.74154,12.07539 -21.63293,10.69609 -2.68815,-1.28234 -3.01549,-4.13159 -0.94168,-8.19659 2.42659,-4.7565 40.52631,-64.2827 45.58174,-71.21595 1.40928,-1.93274 4.07261,-4.31528 5.91852,-5.29454 3.74091,-1.98454 1.31744,-2.12755 25.73359,1.51854 5.6742,0.84734 10.8973,1.35635 11.60686,1.13114 1.57301,-0.49925 1.75666,-0.81218 18.59488,-31.6851 15.895,-29.14352 20.7006,-36.83025 24.22992,-38.75671 2.02408,-1.10482 4.28773,-1.38091 11.32194,-1.38091 13.00576,0 12.58164,-0.26931 45.22183,28.71587 38.13779,33.86718 39.77547,35.84498 39.77547,48.03633 0,7.32116 -2.12525,11.90545 -8.11833,17.51168 -4.84106,4.52857 -8.64752,7.05327 -31.38967,20.81977 -22.3088,13.50417 -30.96331,19.16258 -30.96331,20.24413 0,0.57421 1.58141,7.45722 3.51424,15.29559 2.44982,9.93498 3.36818,15.03011 3.03202,16.82198 -1.19358,6.36234 -4.70094,9.47169 -47.83066,42.40292 -28.15522,21.49762 -30.84506,23.14459 -33.48624,20.50341 z m 59.28376,-98.33568 c 75.95396,-46.03365 73.65464,-44.50953 75.12312,-49.79554 0.98784,-3.55583 0.96578,-9.3281 -0.046,-12.02543 -1.08403,-2.89011 -5.90711,-7.75448 -24.03983,-24.24568 -21.58455,-19.63055 -33.34344,-29.8108 -38.02026,-32.91604 -4.00748,-2.66082 -9.57362,-4.24126 -14.93724,-4.24126 -4.88399,0 -4.71484,-0.26524 -31.93552,50.07645 -30.49978,56.40603 -36.40222,67.56106 -38.29199,72.36795 l -2.00094,5.08968 2.06632,2.70907 c 4.03387,5.28868 22.2179,21.09087 24.29942,21.11655 0.73298,0.009 22.23527,-12.65205 47.78287,-28.13575 z"
       id="path1716"
       transform="matrix(7.5,0,0,-7.5,0,5000)" />
  </g>
</svg>
