<?xml version="1.0" encoding="UTF-8" standalone="no"?>
<svg
   version="1.0"
   width="500.000000pt"
   height="500.000000pt"
   viewBox="0 0 500.000000 500.000000"
   preserveAspectRatio="xMidYMid meet"
   id="svg8"
   sodipodi:docname="SALT.svg"
   inkscape:version="1.1.1 (3bf5ae0d25, 2021-09-20)"
   xmlns:inkscape="http://www.inkscape.org/namespaces/inkscape"
   xmlns:sodipodi="http://sodipodi.sourceforge.net/DTD/sodipodi-0.dtd"
   xmlns="http://www.w3.org/2000/svg"
   xmlns:svg="http://www.w3.org/2000/svg">
  <defs
     id="defs12" />
  <sodipodi:namedview
     id="namedview10"
     pagecolor="#ffffff"
     bordercolor="#666666"
     borderopacity="1.0"
     inkscape:pageshadow="2"
     inkscape:pageopacity="0.0"
     inkscape:pagecheckerboard="0"
     inkscape:document-units="pt"
     showgrid="false"
     inkscape:zoom="1.308"
     inkscape:cx="183.10398"
     inkscape:cy="333.7156"
     inkscape:window-width="1920"
     inkscape:window-height="1057"
     inkscape:window-x="1912"
     inkscape:window-y="-8"
     inkscape:window-maximized="1"
     inkscape:current-layer="g6" />
  <g
     transform="translate(0.000000,500.000000) scale(0.100000,-0.100000)"
     fill="#000000"
     stroke="none"
     id="g6">
    <path
       d="M2360 4030 c-198 -19 -339 -60 -545 -160 -239 -115 -482 -335 -616 -556 -101 -168 -187 -390 -215 -559 -22 -132 -22 -387 0 -511 40 -224 170 -520 299 -679 148 -183 344 -345 521 -430 269 -129 436 -169 706 -167 268 1 427 41 695 172 278 136 518 378 660 665 128 258 169 427 169 695 0 268 -41 437 -169 695 -105 212 -253 389 -453 540 -93 71 -288 172 -434 225 -162 58 -429 89 -618 70z m877 -588 c88 -9 99 -21 108 -112 4 -36 13 -111 21 -166 20 -141 18 -173 -8 -201 -41 -44 -74 -33 -184 64 -54 47 -121 108 -149 134 -27 26 -81 73 -118 105 -37 32 -70 69 -74 83 -8 34 8 73 37 88 28 14 245 17 367 5z m-470 -87 c36 -15 110 -77 278 -230 50 -45 124 -112 167 -149 83 -73 108 -116 108 -189 0 -74 -35 -125 -120 -179 -41 -27 -82 -51 -90 -55 -8 -3 -37 -21 -65 -38 -37 -24 -247 -152 -262 -160 -1 0 11 -47 27 -103 17 -56 30 -114 30 -128 0 -37 -25 -79 -62 -105 -18 -13 -35 -26 -38 -29 -8 -9 -432 -334 -461 -353 -14 -10 -33 -15 -42 -11 -33 12 -29 43 15 121 24 43 47 85 51 93 4 8 13 24 20 35 7 11 32 55 56 98 l43 78 -22 24 c-19 20 -28 23 -74 18 -48 -5 -54 -3 -101 35 -28 22 -80 70 -117 106 -66 63 -68 67 -68 113 0 54 -12 73 -46 73 -19 0 -202 -116 -312 -197 -20 -15 -43 -23 -60 -21 -39 4 -41 44 -4 99 16 24 56 87 90 139 34 52 90 140 126 195 36 55 78 121 93 147 15 26 42 55 58 64 30 16 38 15 158 -6 78 -14 131 -20 136 -14 5 5 24 38 43 74 207 388 234 434 263 452 37 22 131 24 182 3z m-658 -1144 c177 -162 181 -166 181 -192 0 -34 -84 -119 -117 -119 -24 0 -88 52 -265 219 -64 60 -63 81 6 149 40 39 59 50 72 45 11 -3 66 -49 123 -102z m-337 -78 c20 -18 24 -73 6 -91 -7 -7 -28 -12 -48 -12 -20 0 -41 5 -48 12 -17 17 -15 74 4 92 20 21 63 20 86 -1z m156 -155 c16 -16 16 -80 0 -96 -15 -15 -63 -16 -89 -2 -26 14 -27 84 -1 99 24 14 75 14 90 -1z m-176 -25 c20 -18 23 -54 8 -84 -8 -14 -21 -19 -55 -19 -34 0 -47 5 -55 19 -14 28 -13 53 6 79 18 27 69 30 96 5z m366 -160 c2 -33 -1 -44 -20 -57 -29 -20 -62 -20 -82 0 -16 16 -22 85 -9 98 4 4 30 6 58 4 l50 -3 3 -42z m-184 -9 c10 -26 7 -79 -6 -92 -7 -7 -28 -12 -48 -12 -45 0 -60 15 -60 60 0 20 5 41 12 48 18 18 95 15 102 -4z m-192 -11 c20 -18 24 -73 6 -91 -7 -7 -29 -12 -49 -12 -61 0 -90 59 -49 100 24 24 67 26 92 3z"
       id="path2"
       style="fill:#f95b3d;fill-opacity:1" />
    <path
       d="M2634 3293 c-12 -2 -24 -12 -27 -21 -3 -9 -22 -46 -42 -82 -48 -85 -95 -171 -163 -300 -30 -58 -58 -109 -62 -115 -4 -5 -34 -59 -65 -120 -32 -60 -61 -114 -65 -120 -33 -46 -99 -186 -94 -199 7 -19 182 -176 196 -176 5 0 33 15 61 34 29 18 88 55 132 81 82 49 378 228 405 245 63 39 228 139 258 157 57 34 72 58 72 116 0 47 -3 53 -52 101 -57 55 -379 343 -419 374 -25 20 -97 33 -135 25z m568 -490 c10 -9 18 -30 18 -49 0 -33 -16 -45 -350 -244 -8 -4 -136 -81 -283 -171 -233 -141 -270 -161 -290 -152 -35 16 -154 130 -160 153 -5 20 12 58 98 215 62 113 81 139 130 183 73 64 99 69 192 36 65 -23 99 -29 203 -32 77 -3 146 0 180 8 68 15 172 49 185 61 15 14 57 10 77 -8z"
       id="path4"
       style="fill:#f95b3d;fill-opacity:1" />
  </g>
</svg>
